<svg width="607" height="607" viewBox="0 0 607 607" fill="none" xmlns="http://www.w3.org/2000/svg">
<path d="M383.703 261.848C380.68 257.285 377.099 253.495 373.348 250.887L373.293 250.849L373.226 250.861C355.583 253.916 339.311 262.161 326.174 274.71L326.123 274.759V274.829C326.136 275.41 326.2 275.988 326.315 276.557C328.909 284.394 336.009 312.168 318.444 340.63C318.282 340.891 318.056 341.107 317.788 341.258C317.52 341.408 317.218 341.488 316.911 341.49C316.843 341.489 316.776 341.484 316.708 341.476C312.927 341.022 309.174 340.362 305.465 339.499L305.086 339.443C304.162 339.262 303.184 339.038 302.203 338.807L301.821 338.664L301.436 338.518L301.392 338.508C297.303 337.454 293.238 336.189 289.31 334.748C271.505 328.215 257.657 318.299 249.261 306.06C248.502 305.179 247.605 304.36 246.183 304.317C244.858 304.281 243.409 304.615 242.122 304.906C233.865 307.215 225.893 310.61 219.186 313.629C214.109 315.927 208.741 318.511 201.785 322.003L201.676 322.107C201.629 322.155 201.585 322.204 201.542 322.256C201.217 322.661 201.085 322.977 201.138 323.256C201.196 323.628 201.542 323.863 201.947 324.122L202.214 324.3C202.286 324.348 202.353 324.403 202.416 324.462L202.511 324.527C208.624 326.613 213.866 331.274 217.672 338.01C221.921 345.537 223.742 354.656 222.528 362.405V362.45L222.547 362.565C222.56 363.294 222.479 364.021 222.306 364.728C222.29 364.805 222.271 364.89 222.251 364.979C222.128 365.521 221.972 366.193 222.275 366.673C222.538 367.087 223.145 367.241 224.167 367.142C225.867 366.618 227.678 366.149 229.555 365.748C231.959 365.228 234.391 364.851 236.839 364.617C239.308 364.362 241.792 364.285 244.271 364.388C244.649 364.414 245.003 364.584 245.26 364.863C245.516 365.143 245.655 365.51 245.648 365.889C245.641 366.268 245.489 366.63 245.222 366.9C244.956 367.17 244.595 367.327 244.216 367.338H244.194H244.109C243.421 367.338 242.622 367.338 241.56 367.397C240.346 367.721 239.077 368.231 238.998 369.552C238.933 370.622 239.808 371.535 240.655 372.417C240.983 372.743 241.29 373.09 241.574 373.455L241.606 373.487C243.736 375.155 245.69 377.036 247.438 379.102L247.468 379.132C247.603 379.248 247.743 379.361 247.873 379.476L248.138 379.693L248.358 380.215L248.38 380.253C249.281 381.386 250.125 382.563 250.908 383.78C258.101 394.971 260.146 408.79 256.67 422.695C256.53 423.263 256.367 423.866 256.186 424.491L256.162 424.574L256.278 424.716L256.318 424.769L255.82 425.728C253.073 434.543 248.453 441.251 243.858 447.201C243.312 448.053 242.893 448.98 242.614 449.953C241.918 452.595 242.837 455.214 243.945 457.682C250.169 467.337 259.798 474.763 272.561 479.749C286.15 485.058 299.611 486.171 308.51 486.171H308.609C327.333 486.159 344.422 481.408 353.213 473.772L353.276 473.685L353.266 473.598C353.266 473.549 353.252 473.496 353.242 473.448C348.715 448.864 351.734 423.569 362.215 398.263C362.713 397.049 363.205 395.855 363.67 394.688C368.291 387.274 371.498 380.364 373.477 373.562C376.31 363.801 376.393 353.733 373.728 343.617L373.696 343.495H373.673C369.665 335.705 365.535 327.649 366.521 317.843C367.203 310.988 372.647 302.788 383.177 292.754C383.986 291.765 384.866 290.822 385.722 289.909C386.147 289.456 386.574 289.003 386.993 288.54C388.556 286.846 389.652 284.774 390.172 282.528V282.506C390.793 276.515 388.433 268.992 383.703 261.848Z" fill="#8066FF"/>
<path d="M149.306 248.036L149.271 248.055C147.666 249.105 145.856 249.804 143.96 250.104C143.645 250.165 143.327 250.216 143.009 250.266C142.147 250.367 141.3 250.571 140.486 250.873C139.446 251.314 138.764 252.186 138.107 253.03C137.983 253.188 137.86 253.346 137.722 253.518L135.223 257.103C134.612 257.982 134.253 259.011 134.185 260.08C134.116 261.148 134.342 262.215 134.836 263.164C135.331 264.114 136.076 264.91 136.99 265.466C137.905 266.023 138.954 266.318 140.025 266.321C140.333 266.321 140.641 266.298 140.945 266.25C141.729 266.131 142.48 265.853 143.153 265.432C143.825 265.012 144.404 264.459 144.855 263.806L153.858 250.845L153.883 250.8C154.312 249.789 154.332 248.979 153.937 248.273C153.035 246.689 150.791 247.5 149.306 248.036Z" fill="#FF4569"/>
<path d="M292.835 101.084C292.518 92.8649 290.676 85.4697 287.372 79.1043C283.904 72.3605 278.378 66.7356 271.813 63.2676C265.54 59.8887 257.963 58.3995 249.898 58.96C242.717 59.4516 235.33 61.5013 227.915 65.0542C220.967 68.4293 214.532 72.7683 208.798 77.9429C205.906 80.5091 203.178 83.2534 200.628 86.1596C198.079 89.0742 195.69 92.1252 193.471 95.299C189.061 101.661 185.416 108.52 182.61 115.735C179.737 123.251 177.956 130.8 177.309 138.175C177.065 140.948 176.99 143.734 177.086 146.516L177.113 147.165C177.305 151.814 178.072 156.421 179.395 160.881C181.56 168.169 185.562 174.779 191.015 180.077C191.155 180.211 191.267 180.371 191.345 180.549C191.423 180.727 191.465 180.918 191.469 181.112C191.473 181.306 191.439 181.499 191.368 181.679C191.298 181.86 191.192 182.025 191.057 182.165C190.798 182.427 190.452 182.585 190.083 182.607C189.715 182.63 189.352 182.516 189.062 182.288C185.98 179.778 183.317 176.794 181.171 173.448C180.477 172.687 179.911 172.315 179.441 172.315H179.423C179.299 172.318 179.177 172.349 179.066 172.405C178.955 172.461 178.858 172.541 178.782 172.639C178.264 173.258 178.29 174.191 178.31 174.941V175.208C178.31 175.496 178.31 175.783 178.31 176.081L178.474 179.994C178.84 189.271 176.181 198.416 170.899 206.052L169.582 207.944L169.537 208.025C167.441 210.922 166.907 214.259 168.082 217.176C168.704 218.722 169.857 219.948 171.168 220.452C171.603 220.621 172.065 220.709 172.532 220.709C173.139 220.705 173.737 220.562 174.28 220.29C174.699 220.075 175.089 219.808 175.441 219.495L180.263 212.561C185.573 204.944 193.219 199.262 202.044 196.375L207.479 194.604L207.517 194.586C208.06 194.232 208.669 193.805 209.039 193.234C209.128 193.12 209.19 192.986 209.219 192.843C209.248 192.701 209.243 192.553 209.205 192.413C209.057 191.966 208.507 191.717 208.092 191.565L208.007 191.543C207.291 191.403 206.574 191.197 205.88 190.997C205.601 190.916 205.322 190.835 205.043 190.76C204.681 190.652 204.374 190.41 204.186 190.083C203.997 189.756 203.94 189.369 204.028 189.002C204.116 188.635 204.34 188.315 204.656 188.108C204.972 187.902 205.355 187.824 205.727 187.891L205.812 187.913C209.525 188.69 213.313 189.054 217.106 188.998C220.916 188.913 224.708 188.438 228.422 187.581C229.8 187.257 231.239 186.859 232.823 186.367L234.569 185.797C239.815 183.981 244.833 181.567 249.526 178.602C256.06 174.467 262.034 169.506 267.299 163.843C272.589 158.19 277.201 151.938 281.041 145.215C284.907 138.509 287.918 131.347 290.007 123.895C292.17 116.176 293.114 108.499 292.835 101.084ZM282.016 106.427C281.846 119.739 276.869 134.098 268.003 146.86C255.175 165.323 235.901 177.244 218.901 177.244C212.309 177.244 206.451 175.498 201.49 172.054C192.688 165.938 187.883 155.169 187.958 141.734C188.033 128.3 192.992 113.788 201.919 100.938C210.789 88.1749 222.512 78.5053 234.933 73.71C240.477 71.5653 245.872 70.499 250.938 70.499C257.441 70.499 263.402 72.2573 268.428 75.7496C277.369 81.9632 282.192 92.8609 282.016 106.427Z" fill="#FF4569"/>
<path d="M441.795 91.3576C441.929 91.6348 442.086 91.9322 442.283 92.2722C442.348 92.381 442.419 92.4858 442.497 92.5858L442.552 92.6707H442.582C442.781 92.8563 443.041 92.9616 443.313 92.9662C443.358 92.9691 443.403 92.9691 443.448 92.9662C443.691 92.9318 443.962 92.7638 444.282 92.4421L444.314 92.3956C444.705 91.5552 445.226 90.7815 445.858 90.1031C448.798 86.9488 454.204 85.929 459.631 87.5072C465.407 89.1825 470.785 88.1587 474.015 84.7676C474.272 84.5005 474.511 84.2166 474.731 83.9178L474.777 83.8531L474.755 83.7762C472.685 76.4193 467.305 69.89 460.361 66.3148L460.321 66.2946H460.276C455.117 66.6078 450.271 68.8776 446.728 72.6408C443.185 76.404 441.211 81.3773 441.208 86.5461C441.206 88.1456 441.398 89.7394 441.779 91.2929L441.795 91.3576Z" fill="#FFEC61"/>
<path d="M475.615 88.5411L475.591 88.2295L475.348 88.4318C471.123 91.8937 465.029 92.8164 458.629 90.965C454.56 89.7895 450.487 90.4289 448.492 92.5574C447.438 93.6905 446.936 95.2525 447.009 97.2272C447.539 99.7382 448.616 101.699 450.528 103.605C453.115 105.273 456.049 106.329 459.106 106.694C462.164 107.058 465.264 106.722 468.171 105.709C472.461 102.978 475.176 97.99 475.621 92.0253C475.708 90.8654 475.706 89.7006 475.615 88.5411Z" fill="#FFEC61"/>
<path d="M229.509 371.67C227.305 371.265 224.653 371.638 221.642 372.568C221.478 372.615 221.314 372.668 221.144 372.726C220.942 372.791 220.74 372.858 220.521 372.929L220.003 373.105C219.275 373.368 218.534 373.655 217.778 373.971C217.171 374.213 216.564 374.483 215.942 374.758C215.609 374.909 215.267 375.065 214.931 375.223C214.465 375.439 213.993 375.662 213.514 375.893C213.245 376.024 212.976 376.162 212.705 376.297C212.226 376.534 211.748 376.777 211.262 377.026L211.19 377.064C210.449 377.445 209.7 377.831 208.948 378.238C208.658 378.39 208.371 378.545 208.082 378.703L206.868 379.359L205.773 379.966C204.633 381.059 203.801 382.434 203.361 383.952C203.348 383.976 203.342 384.003 203.341 384.031C203.319 384.126 203.303 384.223 203.295 384.32C203.273 384.437 203.257 384.555 203.248 384.674C203.236 384.779 203.228 384.876 203.222 384.996C203.216 385.115 203.21 385.277 203.21 385.423V385.514C203.21 385.698 203.21 385.874 203.222 386.058C203.242 386.477 203.28 386.898 203.333 387.31C203.333 387.383 203.345 387.448 203.359 387.513C203.371 387.638 203.392 387.756 203.412 387.879C203.497 388.423 203.614 388.962 203.746 389.498C203.805 389.656 203.873 389.813 203.948 389.969C204.709 391.687 205.502 393.399 206.328 395.09C206.935 395.989 207.566 396.887 208.203 397.785C212.315 403.606 216.976 410.209 218.037 420.89C219.19 432.449 216.6 443.824 211.034 454.058C211.019 454.284 210.94 454.5 210.805 454.681C210.589 454.997 210.366 455.317 210.15 455.638C209.421 456.883 208.652 458.112 207.841 459.323C207.048 460.746 206.486 462.286 206.176 463.886C205.569 467.315 206.504 470.71 207.487 473.988C209.292 477.995 211.307 481.903 213.525 485.697C214.043 486.326 214.619 487.028 215.178 487.316C216.207 487.854 216.928 487.061 217.328 486.162C217.466 485.632 217.61 485.1 217.755 484.582C217.841 483.938 218.023 483.311 218.294 482.721C218.425 482.282 218.563 481.849 218.698 481.422C218.797 481.1 218.901 480.786 219.006 480.471C219.131 480.097 219.261 479.724 219.386 479.356C219.512 478.988 219.655 478.601 219.791 478.235C219.967 477.749 220.145 477.278 220.329 476.819C220.473 476.438 220.624 476.064 220.774 475.698C220.976 475.186 221.179 474.686 221.403 474.196C221.541 473.869 221.685 473.547 221.822 473.233C222.354 472.053 222.9 470.91 223.461 469.804L223.973 468.82C224.327 468.139 224.693 467.469 225.062 466.813C225.246 466.486 225.436 466.158 225.618 465.836C225.8 465.514 225.992 465.193 226.182 464.879C226.209 464.677 226.235 464.486 226.255 464.288C226.47 464.132 226.67 463.957 226.852 463.764L226.879 463.738C227.212 463.2 227.548 462.67 227.89 462.146C226.733 460.531 225.686 458.842 224.756 457.087C223.791 455.332 222.924 453.524 222.16 451.673C222.013 451.298 222.008 450.883 222.145 450.505C222.282 450.127 222.553 449.812 222.905 449.619C223.258 449.426 223.67 449.368 224.062 449.456C224.454 449.544 224.801 449.773 225.037 450.099C226.188 451.736 227.244 453.44 228.198 455.199C228.867 456.413 229.503 457.638 230.073 458.904C232.501 455.464 234.984 452.34 237.384 449.332C243.947 441.097 250.143 433.315 253.026 421.764C256.245 408.881 254.378 396.116 247.749 385.803C242.903 378.278 235.921 372.864 229.509 371.67ZM220.711 447.885C220.481 447.698 220.231 447.537 219.965 447.406C219.965 447.321 219.965 447.236 219.953 447.151C220.387 447.024 220.839 446.976 221.29 447.007C221.096 447.302 220.908 447.592 220.709 447.887L220.711 447.885ZM229.95 378.507C229.859 378.46 229.76 378.422 229.661 378.381C230.056 378.263 230.463 378.19 230.875 378.165C230.901 378.177 230.927 378.197 230.96 378.218C230.612 378.272 230.272 378.37 229.948 378.509L229.95 378.507Z" fill="#FFEC61"/>
<path d="M450.702 413.491V413.207C449.137 390.157 441.338 367.966 428.137 349.005L428.03 348.849L427.893 348.979C426.553 350.235 425.151 351.407 423.955 352.386C422.19 353.845 420.339 355.196 418.411 356.433C418.078 356.642 417.675 356.71 417.291 356.623C416.907 356.536 416.574 356.3 416.364 355.967C416.187 355.683 416.112 355.349 416.148 355.017C416.185 354.685 416.332 354.375 416.566 354.136C418.185 352.515 419.901 350.993 421.705 349.58C423.312 348.295 424.688 347.263 426.035 346.342L426.175 346.247L426.074 346.112C414.826 330.902 400.352 318.37 383.691 309.412C382.327 308.925 380.919 308.419 379.422 308.231C374.831 307.666 372.433 311.521 370.853 314.962C370.49 316.006 370.245 317.087 370.124 318.186C369.248 326.945 372.987 334.231 376.947 341.946L376.967 341.986C380.346 348.56 383.847 355.356 384.488 363.504V363.569L384.508 363.589V363.613V363.642C385.097 371.553 382.847 379.515 377.629 387.985C376.743 389.415 375.83 390.969 374.76 392.875L374.689 393L374.806 393.085C375.743 393.775 376.694 394.55 377.797 395.527C379.149 396.718 380.428 397.99 381.625 399.335C381.753 399.483 381.851 399.655 381.912 399.841C381.974 400.027 381.998 400.223 381.984 400.418C381.97 400.614 381.917 400.804 381.829 400.979C381.741 401.154 381.62 401.31 381.471 401.438C381.224 401.65 380.915 401.776 380.59 401.796C380.265 401.816 379.942 401.73 379.671 401.551C378.187 400.532 376.768 399.422 375.422 398.227C374.566 397.474 373.862 396.81 373.206 396.161L373.048 396.003L372.945 396.205C369.066 403.482 365.907 411.12 363.512 419.01C361.825 424.628 360.607 430.376 359.87 436.195C359.862 436.223 359.859 436.252 359.86 436.281V436.326C359.777 437.319 359.725 438.323 359.696 439.395C359.652 439.543 359.619 439.693 359.587 439.857C359.528 440.178 359.476 440.494 359.421 440.838C358.175 457.692 361.724 473.499 369.685 486.553C376.029 496.953 380.207 508.073 382.08 519.602L382.143 519.985L382.374 519.675C382.793 519.113 383.221 518.552 383.65 518.008C384.895 516.432 386.396 514.587 388.084 512.834C388.339 512.57 388.683 512.409 389.049 512.383C389.416 512.357 389.779 512.468 390.069 512.695C390.358 512.921 390.553 513.247 390.616 513.609C390.68 513.972 390.606 514.344 390.41 514.655C389.196 516.574 387.887 518.432 386.487 520.22C385.103 521.998 383.932 523.39 382.799 524.6L382.748 524.655V524.728C382.894 526.205 382.995 527.623 383.05 528.94V528.983C383.304 529.792 383.624 530.704 384.223 531.394C384.684 531.921 385.312 532.105 385.977 532.105C386.74 532.07 387.492 531.91 388.203 531.631C409.719 518.991 426.899 500.563 437.884 478.339L437.904 478.296L437.756 478.225L437.926 478.243C438.707 476.38 439.444 474.46 440.105 472.554C441.576 469.505 442.948 466.332 444.166 463.151C444.189 463.118 444.204 463.08 444.211 463.04C449.887 448.263 452.614 432.517 452.237 416.692C452.191 414.956 451.391 413.996 450.702 413.491Z" fill="#FFEC61"/>
<path d="M377.323 535.651C374.596 515.835 365.726 498.141 355.269 478.713C355.056 478.311 354.783 477.943 354.46 477.624L354.371 477.539L353.966 477.77C352.045 479.209 350.004 480.48 347.866 481.57L347.777 481.616V481.715C347.776 481.72 347.776 481.725 347.777 481.729L347.694 481.774C347.638 481.766 347.582 481.761 347.526 481.762L347.451 481.78C337.29 486.917 323.499 489.754 308.615 489.768H308.516C297.185 489.768 258.801 487.585 240.813 459.467C240.016 458.601 239.144 457.755 237.999 457.755H237.97C235.947 457.775 234.073 460.045 232.71 461.704L232.633 461.8C227.121 469.751 223.595 477.272 221.197 486.209C220.461 492.056 221.92 497.968 225.292 502.8C231.815 510.653 239.247 517.702 247.433 523.801L247.502 523.831C248.514 524.015 249.368 523.807 250.066 523.204C251.059 522.342 251.264 520.691 251.428 519.359C251.452 519.169 251.474 518.987 251.496 518.817C251.648 517.755 251.854 516.652 252.13 515.414C252.206 514.918 252.285 514.42 252.368 513.927C252.419 513.656 252.465 513.382 252.512 513.117C252.597 512.624 252.684 512.106 252.795 511.62C253.311 508.953 254.009 506.064 255.001 502.527C255.895 499.371 256.852 496.457 257.926 493.639C258.065 493.28 258.337 492.99 258.686 492.83C259.035 492.669 259.432 492.651 259.794 492.779C260.156 492.907 260.454 493.171 260.625 493.515C260.795 493.86 260.824 494.257 260.707 494.622L260.692 494.663C259.883 497.091 259.092 499.873 258.177 503.387C257.311 506.827 256.706 509.639 256.273 512.266C255.933 514.394 255.553 516.871 255.341 519.335C255.379 520.072 255.399 520.822 255.418 521.551C255.442 522.536 255.468 523.554 255.545 524.565C255.77 527.443 256.87 529.599 259.138 531.578C263.631 534.218 268.28 536.583 273.059 538.66C274.309 538.996 276.051 539.251 276.727 537.573C277.061 536.742 277.132 535.698 277.187 534.686C277.213 534.253 277.237 533.846 277.284 533.472C277.314 533.239 277.34 533.007 277.369 532.772C277.397 532.537 277.425 532.307 277.456 532.058C277.506 530.31 277.581 528.729 277.684 527.226C277.824 525.178 277.982 523.457 278.176 521.804C278.197 521.611 278.256 521.425 278.349 521.256C278.443 521.086 278.57 520.938 278.722 520.818C278.949 520.636 279.225 520.526 279.515 520.5C279.805 520.475 280.096 520.536 280.351 520.676C280.606 520.816 280.814 521.028 280.949 521.286C281.084 521.544 281.139 521.836 281.108 522.125C280.968 523.701 280.865 525.423 280.792 527.386C280.78 527.772 280.772 528.161 280.768 528.557V528.64C280.774 528.688 280.777 528.736 280.778 528.784V528.986C280.713 532.426 280.644 535.975 282.101 539.18C283.02 541.203 284.44 542.62 286.595 543.662C298.572 547.33 311.029 549.197 323.555 549.202C326.467 549.202 329.423 549.096 332.644 548.874C334.402 548.346 335.347 547.239 335.533 545.487C335.558 545.232 335.574 544.959 335.58 544.609C335.473 542.822 335.343 540.902 335.106 538.967C334.666 535.22 333.995 531.504 333.097 527.839V527.799C333.004 527.419 333.066 527.019 333.268 526.684C333.47 526.35 333.797 526.11 334.176 526.016C334.544 525.928 334.933 525.984 335.262 526.172C335.591 526.36 335.836 526.666 335.948 527.028C336.48 528.873 337.031 530.781 337.433 532.73C337.838 534.506 338.186 536.398 338.508 538.514C338.672 539.562 338.815 540.641 338.949 541.83C339.214 542.996 339.671 544.691 340.584 545.93C342.306 548.283 345.504 547.403 347.839 546.759L347.936 546.733C348.143 546.673 348.361 546.673 348.568 546.733L348.606 546.745H348.647C356.105 545.26 363.413 543.097 370.478 540.283C370.543 540.24 370.608 540.192 370.669 540.141L370.699 540.159L370.814 540.147C371.687 539.806 372.6 539.429 373.554 539.016C375.227 537.903 376.417 536.871 377.295 535.779L377.339 535.724L377.323 535.651Z" fill="#1DFFC4"/>
<path d="M266.932 224.37L266.944 224.477L267.048 224.509C267.114 224.531 267.183 224.55 267.25 224.566C267.266 225.515 267.274 226.541 267.274 227.71C268.268 238.636 268.264 248.393 267.262 257.566L267.25 257.674L267.343 257.726C267.42 257.771 267.499 257.811 267.578 257.848C267.442 258.076 267.305 258.303 267.173 258.527L267.149 258.594C266.805 261.498 266.386 264.203 265.862 266.9C265.862 266.922 265.862 266.944 265.862 266.965C265.862 266.985 265.862 267.021 265.862 267.038C265.862 267.135 265.842 267.252 265.828 267.379C265.739 268.189 265.607 269.389 266.214 269.903C266.376 270.044 266.584 270.121 266.799 270.119C267.45 270.119 268.32 269.478 269.429 268.179C287.032 244.882 288.722 218.546 288.232 198.206C288.2 196.92 287.776 195.675 287.016 194.637C286.257 193.598 285.199 192.817 283.983 192.397C282.971 192.051 281.933 191.749 280.893 191.499C279.973 191.32 278.825 191.175 278.109 191.64C276.741 192.539 277.138 194.592 277.401 195.95L277.435 196.126C277.461 196.274 277.461 196.426 277.435 196.575V196.601V196.628C277.907 199.408 278.265 202.192 278.502 204.901C278.738 207.61 278.906 210.417 278.967 213.27C279.04 215.853 279.006 218.593 278.862 221.644C278.852 222.035 278.687 222.406 278.403 222.676C278.119 222.945 277.74 223.091 277.348 223.081C276.957 223.07 276.586 222.905 276.317 222.621C276.047 222.338 275.902 221.958 275.912 221.567C275.912 219.123 275.849 216.45 275.71 213.395C275.566 210.678 275.333 207.932 275.02 205.261C274.659 202.297 274.267 199.663 273.818 197.208C273.597 195.972 273.346 194.736 273.126 193.678C272.957 192.992 272.663 192.343 272.26 191.764C271.738 191.068 270.874 190.724 269.524 190.683C268.059 190.811 266.603 191.026 265.164 191.329C264.179 191.547 263.319 192.145 262.773 192.993C262.227 193.842 262.037 194.872 262.246 195.859C264.529 206.85 266.018 215.91 266.932 224.37Z" fill="#1DFFC4"/>
<path d="M236.558 283.008L253.125 289.106C253.759 289.338 254.435 289.427 255.107 289.369C255.779 289.31 256.43 289.104 257.014 288.766C257.56 288.462 258.031 288.038 258.392 287.528C258.753 287.017 258.995 286.432 259.1 285.816L259.12 285.685C259.252 284.683 259.042 283.665 258.523 282.798C258.005 281.93 257.208 281.263 256.263 280.905L239.755 274.532C239.22 274.326 238.651 274.22 238.078 274.22C237.392 274.215 236.715 274.373 236.102 274.68C235.49 274.987 234.958 275.436 234.553 275.989C234.317 276.318 234.114 276.669 233.946 277.037C233.699 277.576 233.568 278.16 233.561 278.752C233.554 279.345 233.67 279.932 233.903 280.476C234.149 281.057 234.512 281.582 234.968 282.017C235.425 282.453 235.966 282.79 236.558 283.008Z" fill="#1DFFC4"/>
<path d="M274.03 239.534C274.055 239.917 274.212 240.279 274.474 240.559C274.736 240.839 275.087 241.02 275.467 241.07C275.847 241.121 276.233 241.038 276.559 240.836C276.885 240.635 277.131 240.326 277.255 239.963C277.693 238.59 277.994 237.176 278.152 235.743C278.348 234.315 278.433 232.875 278.405 231.435C278.39 231.046 278.239 230.675 277.977 230.386C277.716 230.098 277.361 229.911 276.976 229.859C276.59 229.806 276.198 229.892 275.869 230.1C275.54 230.308 275.295 230.625 275.177 230.996L275.143 231.105C274.74 232.45 274.445 233.825 274.261 235.217C274.039 236.604 273.959 238.011 274.022 239.415L274.03 239.534Z" fill="black"/>
<path d="M297.165 221.515C297.274 222.373 297.558 223.199 298.001 223.943C298.389 224.616 298.873 225.229 299.437 225.764C299.999 226.3 300.63 226.758 301.313 227.127C302.071 227.541 302.903 227.804 303.761 227.9C304.008 227.924 304.256 227.92 304.502 227.888C304.909 227.833 305.301 227.698 305.656 227.492C306.012 227.285 306.323 227.01 306.572 226.683C306.82 226.356 307.003 225.983 307.107 225.586C307.212 225.189 307.238 224.775 307.182 224.367C307.06 223.511 306.771 222.686 306.333 221.939C305.944 221.268 305.468 220.651 304.916 220.106C304.366 219.559 303.739 219.095 303.055 218.728C302.295 218.308 301.457 218.05 300.593 217.97C300.377 217.952 300.16 217.955 299.945 217.98C299.53 218.028 299.128 218.158 298.764 218.362C298.399 218.566 298.078 218.84 297.82 219.169C297.562 219.497 297.371 219.874 297.258 220.276C297.146 220.679 297.114 221.1 297.165 221.515Z" fill="black"/>
<path d="M354.112 383.681C353.739 383.646 353.47 383.626 353.163 383.616C352.855 383.606 352.566 383.602 352.274 383.616C351.684 383.616 351.107 383.66 350.524 383.691C349.368 383.802 348.22 383.979 347.085 384.221C344.817 384.7 342.615 385.451 340.527 386.457C338.459 387.485 336.444 388.658 334.671 390.135C333.745 390.821 332.939 391.647 332.09 392.417C331.661 392.8 331.313 393.259 330.922 393.676C330.532 394.093 330.165 394.532 329.797 394.965C329.521 395.282 329.378 395.693 329.397 396.113C329.416 396.533 329.595 396.929 329.899 397.22C330.202 397.511 330.605 397.675 331.026 397.676C331.446 397.678 331.851 397.518 332.156 397.229L332.237 397.154C333.769 395.738 335.272 394.321 336.968 393.152C337.393 392.863 337.797 392.545 338.222 392.264L339.529 391.454C339.96 391.179 340.404 390.926 340.861 390.698C341.316 390.465 341.751 390.196 342.222 389.997C344.061 389.109 345.982 388.4 347.957 387.881C348.941 387.618 349.938 387.406 350.945 387.248C351.445 387.179 351.957 387.09 352.448 387.045C352.699 387.017 352.948 386.997 353.193 386.983C353.438 386.969 353.705 386.952 353.877 386.942H354.049C354.463 386.922 354.854 386.746 355.142 386.448C355.431 386.151 355.596 385.755 355.604 385.341C355.612 384.926 355.462 384.524 355.185 384.216C354.908 383.908 354.524 383.717 354.112 383.681Z" fill="black"/>
<path d="M201.397 172.186C206.493 175.728 212.493 177.406 218.9 177.406C235.492 177.406 254.784 166.164 268.134 146.959C277.021 134.173 282.01 119.781 282.182 106.435C282.358 92.8042 277.508 81.858 268.525 75.614C259.541 69.37 247.591 68.6375 234.875 73.5522C222.423 78.3637 210.674 88.0554 201.785 100.841C183.28 127.47 183.112 159.475 201.397 172.186ZM205.016 103.085C213.46 90.9448 224.568 81.7528 236.293 77.2205C241.388 75.2518 246.321 74.2725 250.924 74.2725C256.674 74.2725 261.904 75.8021 266.279 78.8432C274.156 84.3183 278.407 94.0991 278.249 106.385C278.087 118.954 273.348 132.567 264.895 144.715C247.634 169.555 220.151 180.439 203.64 168.96C187.13 157.482 187.747 127.933 205.016 103.091V103.085Z" fill="black"/>
<path d="M444.886 103.92C444.957 104 445.034 104.074 445.117 104.141C449.666 108.443 455.714 110.802 461.974 110.715C468.235 110.627 474.215 108.102 478.642 103.674C483.07 99.2468 485.595 93.267 485.683 87.0063C485.77 80.7456 483.411 74.6979 479.109 70.1489C479.053 70.0815 478.992 70.0179 478.927 69.9587C476.717 67.6378 474.066 65.782 471.128 64.5005C468.191 63.219 465.027 62.5377 461.823 62.4965C458.618 62.4553 455.438 63.0552 452.469 64.2608C449.499 65.4664 446.801 67.2535 444.533 69.5169C442.264 71.7803 440.471 74.4745 439.258 77.4409C438.046 80.4074 437.438 83.5863 437.472 86.7908C437.506 89.9953 438.18 93.1607 439.454 96.101C440.729 99.0413 442.579 101.697 444.895 103.912L444.886 103.92ZM461.504 106.67C457.642 106.673 453.861 105.558 450.619 103.459C448.856 101.699 447.709 99.7665 447.165 97.1867C447.106 95.5094 447.468 93.8907 448.611 92.6646C450.562 90.5745 454.57 89.9513 458.582 91.1147C465.737 93.1886 472.529 91.7824 476.748 87.3533C477.989 86.0504 478.96 84.5149 479.605 82.8352C479.941 82.473 480.331 82.2424 480.762 82.3779C481.061 82.473 481.221 82.8049 481.337 83.1367C481.836 86.0255 481.697 88.9885 480.931 91.8181C480.164 94.6477 478.788 97.2755 476.899 99.5173C475.01 101.759 472.654 103.561 469.995 104.796C467.336 106.031 464.44 106.67 461.508 106.668L461.504 106.67ZM461.504 66.4058C465.028 66.4029 468.49 67.3313 471.54 69.0968C474.026 70.9202 475.822 73.5308 476.636 76.5042C476.816 79.7051 475.886 82.5459 473.899 84.634C470.714 87.9806 465.401 88.9882 459.679 87.3311C454.196 85.7407 448.723 86.7787 445.738 89.9735C445.096 90.6654 444.566 91.4541 444.168 92.3105C443.972 92.5388 443.713 92.7036 443.424 92.7839C442.788 92.873 442.335 92.2356 442.021 91.5983C441.249 88.6225 441.168 85.5093 441.786 82.4975C442.403 79.4857 443.702 76.6553 445.583 74.2233C447.464 71.7914 449.876 69.8225 452.636 68.4678C455.396 67.113 458.43 66.4083 461.504 66.4078V66.4058Z" fill="black"/>
<path d="M536.896 133.665C536.68 131.15 535.601 128.786 533.841 126.976C532.082 125.165 529.751 124.019 527.242 123.731L525.302 123.512L525.249 122.867L525.1 120.991L525.021 120.054L524.98 119.583L524.903 118.976C524.642 117.342 523.913 115.819 522.804 114.59C521.695 113.362 520.254 112.481 518.655 112.054C518.256 111.949 517.851 111.872 517.441 111.821L516.498 111.714L515.564 111.609L515.096 111.556L514.489 111.518C512.841 111.444 511.206 111.85 509.783 112.686C508.361 113.522 507.211 114.754 506.475 116.23C506.112 116.967 505.858 117.752 505.72 118.561C505.698 118.666 505.69 118.764 505.676 118.877C503.682 118.58 501.645 118.9 499.838 119.793C498.213 120.602 496.843 121.844 495.879 123.382C494.915 124.92 494.394 126.695 494.375 128.51C494.389 129.099 494.432 129.724 494.474 130.147L494.598 131.563L495.587 142.963L496.747 155.936L493.776 150.22C492.714 148.243 490.943 146.742 488.819 146.018C486.695 145.295 484.375 145.402 482.327 146.319C480.279 147.236 478.654 148.895 477.779 150.961C476.905 153.028 476.845 155.349 477.612 157.458L486.952 182.023C387.482 228.529 364.526 240.722 344.847 251.828C333.605 258.175 327.816 264.533 322.71 270.143C319.041 274.174 315.715 277.82 310.859 281.106C310.033 281.399 309.212 281.367 308.655 280.414C308.378 279.92 308.238 279.361 308.251 278.795C308.433 278.028 308.612 277.259 308.787 276.49C309.558 274.265 311.112 272.527 313.313 271.634C313.461 271.576 313.598 271.494 313.718 271.39C314.653 270.928 315.569 270.435 316.455 269.882C320.688 267.252 324.399 263.61 326.774 259.084C327.999 256.815 328.817 254.35 329.192 251.8C329.308 251.162 329.334 250.511 329.395 249.863C329.455 249.216 329.395 248.548 329.378 247.891C329.295 246.602 329.097 245.323 328.788 244.069C328.172 241.645 327.29 239.297 326.157 237.068C325.403 235.595 324.577 234.172 323.707 232.786L325.441 225.976C325.545 225.567 325.515 225.135 325.354 224.744C325.194 224.354 324.912 224.025 324.551 223.807L306.855 213.13C305.641 211.978 304.409 210.842 303.16 209.722C299.615 206.56 296.01 203.543 292.188 200.64C292.131 200.601 292.072 200.565 292.012 200.533C292.012 199.723 291.991 198.914 291.971 198.105C291.915 196.049 291.235 194.06 290.02 192.401C288.805 190.742 287.113 189.493 285.171 188.819C276.824 185.962 269.243 186.594 264.351 187.634C262.733 187.985 261.276 188.857 260.201 190.115C259.125 191.373 258.492 192.948 258.396 194.6H258.382C240.912 199.051 227.222 211.701 222.668 227.601C218.621 241.705 222.263 256.71 232.649 269.387C233.015 270.014 233.424 270.75 233.309 271.309C233.22 271.738 232.918 272.138 232.58 272.539C232.167 272.911 231.795 273.326 231.469 273.777C231.091 274.304 230.764 274.867 230.494 275.457C230.031 276.466 229.784 277.561 229.769 278.671C229.753 279.782 229.97 280.883 230.405 281.905C230.635 282.456 230.924 282.98 231.267 283.469C231.716 284.294 232.117 285.148 232.206 286.063C232.266 286.735 232.198 287.412 232.004 288.058C221.515 305.639 200.152 305.301 177.63 304.941C174.656 304.892 171.601 304.845 168.576 304.841L167.985 295.939L167.394 287.036L167.251 284.831C167.222 284.287 167.271 283.742 167.398 283.212C167.663 282.147 168.237 281.185 169.049 280.448L175.917 274.961L176.795 274.257L177.709 273.494C178.3 272.964 178.887 272.426 179.441 271.855C180.554 270.721 181.579 269.503 182.507 268.213C184.362 265.623 185.803 262.759 186.776 259.725C187.025 258.97 187.227 258.202 187.421 257.429L187.672 256.263L187.887 255.16L188.73 250.784L189.574 246.408L189.777 245.313C189.839 244.896 189.928 244.449 189.957 244.012C190.034 243.131 190.022 242.245 189.92 241.367C189.709 239.61 189.136 237.915 188.236 236.39C187.336 234.866 186.129 233.545 184.692 232.511C184.344 232.238 183.955 232.03 183.585 231.793L182.612 231.239L180.684 230.134L176.807 227.932L174.929 226.866L183.367 214.726C188.21 207.787 195.178 202.611 203.22 199.978L233.974 189.977C234.581 189.787 235.188 189.592 235.795 189.386L236.696 189.093C236.81 189.054 236.922 189.006 237.027 188.947C242.101 187.091 246.964 184.702 251.535 181.821C258.347 177.514 264.576 172.345 270.064 166.443C275.555 160.571 280.342 154.078 284.327 147.096C288.349 140.119 291.484 132.667 293.659 124.912C295.811 117.151 296.914 109.048 296.621 100.934C296.327 92.8204 294.531 84.6724 290.721 77.35C286.961 70.0235 280.916 63.7936 273.581 59.923C269.921 57.979 265.984 56.6075 261.908 55.8561C257.864 55.1127 253.741 54.8863 249.639 55.1823C241.465 55.7468 233.555 58.1485 226.275 61.6408C219.01 65.1684 212.277 69.7021 206.277 75.1081C203.271 77.7793 200.433 80.6336 197.779 83.6547C195.137 86.6809 192.662 89.848 190.363 93.1421C185.781 99.7566 181.993 106.887 179.077 114.387C176.204 121.9 174.243 129.795 173.539 137.858C173.337 140.199 173.244 142.556 173.266 144.917C173.266 144.943 173.266 144.97 173.266 144.996V145.144C173.282 146.412 173.335 147.679 173.424 148.946L174.721 180.168C175.058 188.623 172.635 196.959 167.817 203.916L162.781 211.163L156.4 205.7C154.753 204.29 152.836 203.229 150.767 202.582C148.697 201.935 146.518 201.715 144.361 201.936C142.204 202.156 140.114 202.813 138.219 203.865C136.323 204.918 134.661 206.345 133.334 208.059L128.016 214.922L127.966 214.989L119.284 226.196C118.976 226.417 118.739 226.723 118.602 227.077L116.358 229.972C113.797 233.268 112.267 237.249 111.963 241.412C111.658 245.575 112.592 249.736 114.646 253.37L125.439 272.529C126.986 275.272 127.723 278.397 127.565 281.543C127.116 290.532 126.649 298.828 126.199 306.851C126.046 309.592 125.896 312.266 125.75 314.875C108.9 325.801 108.957 343.625 114.563 368.718C116.002 375.152 116.538 380.637 116.226 385.465C116.226 385.518 116.226 385.572 116.216 385.625C115.031 402.896 102.917 411.694 82.2485 425.137C68.1155 434.327 62.6788 455.266 70.1328 471.811C73.6453 479.609 81.5059 489.942 99.0078 494.877C105.535 496.72 112.794 497.64 120.785 497.639C132.828 497.639 146.481 495.543 161.62 491.356C177.483 486.968 190.974 478.696 200.814 468.155C204.595 478.092 209.566 487.536 215.617 496.279C215.725 496.534 215.885 496.764 216.088 496.953C223.861 508.071 233.303 517.923 244.079 526.164C267.08 543.704 294.557 552.977 323.559 552.977C344.298 552.977 364.137 548.277 382.527 539.004C404.56 527.911 423.02 510.834 435.791 489.731C448.562 468.627 455.127 444.352 454.734 419.688C454.34 395.024 447.003 370.97 433.565 350.285C420.127 329.6 401.131 313.121 378.756 302.737C402.591 275.25 470.714 236.133 510.517 213.28C512.031 212.47 537.335 198.59 539.833 169.029C539.843 168.919 539.843 168.809 539.833 168.699L536.896 133.665ZM310.412 222.443C313.567 225.778 316.475 229.338 319.112 233.096C320.385 234.958 321.545 236.895 322.588 238.895C323.587 240.846 324.368 242.901 324.917 245.024C325.427 247.12 325.601 249.153 325.271 251.241C324.966 253.341 324.294 255.371 323.286 257.238C321.299 261.038 318.1 264.219 314.396 266.534C310.642 268.85 306.414 270.29 302.027 270.748C297.646 271.246 293.181 270.775 288.861 269.601H288.841C288.432 269.484 287.994 269.53 287.618 269.73C287.242 269.93 286.959 270.268 286.828 270.672C286.697 271.077 286.728 271.517 286.915 271.899C287.101 272.281 287.429 272.576 287.829 272.721C290.577 273.751 293.452 274.403 296.376 274.657C298.251 275.034 300.182 275.281 301.709 276.308C303.328 277.393 303.579 279.748 303.445 282.176C303.33 282.71 303.213 283.246 303.097 283.781C302.933 284.543 302.776 285.308 302.612 286.071C302.431 286.404 302.351 286.782 302.381 287.16C301.726 290.257 301.08 293.357 300.469 296.467C300.392 296.882 300.479 297.312 300.711 297.665C300.943 298.018 301.302 298.268 301.714 298.363C302.126 298.458 302.559 298.391 302.922 298.175C303.285 297.958 303.551 297.611 303.664 297.203C303.712 297.019 303.759 296.833 303.808 296.649C303.808 296.633 303.824 296.621 303.83 296.602C305.155 293.163 306.567 289.65 309.465 287.206C310.725 286.144 312.036 285.264 313.259 284.266C315.545 282.695 317.7 280.941 319.701 279.02C320.804 278.285 322.117 277.806 322.96 279.044C323.059 279.191 323.149 279.343 323.232 279.499C325.811 288.452 329.994 310.456 318.084 333.603C317.425 334.531 316.576 335.309 315.593 335.883C314.26 336.62 312.761 336.82 311.235 336.83C299.678 334.682 273.664 328.059 257.317 310.179C256.188 308.315 255.191 305.972 256.81 304.327C258.175 302.939 260.686 303.113 262.803 303.528L263.588 303.731C265.559 304.322 267.422 305.227 269.105 306.412L269.16 306.45C269.481 306.676 269.872 306.779 270.263 306.741C270.653 306.703 271.017 306.526 271.288 306.243C271.56 305.959 271.72 305.587 271.74 305.195C271.761 304.804 271.64 304.417 271.4 304.107C271.329 303.911 271.211 303.735 271.056 303.595C265.998 298.903 263.733 292.264 265.065 285.456C266.392 278.676 270.542 272.948 274.655 267.574C274.775 267.424 274.857 267.249 274.896 267.062C280.027 259.575 283.957 251.385 286.763 242.355C289.074 234.919 290.607 226.838 291.405 217.955C291.904 215.647 292.564 213.302 293.618 211.24C294.719 209.089 296.141 209.32 297.594 210.168C298.569 211.015 299.535 211.869 300.491 212.729C303.945 215.827 307.261 219.07 310.412 222.443ZM238.078 274.382C238.631 274.383 239.18 274.486 239.696 274.686L256.205 281.057C257.115 281.401 257.882 282.043 258.382 282.878C258.882 283.714 259.085 284.693 258.958 285.658L258.936 285.788C258.835 286.379 258.602 286.941 258.255 287.431C257.909 287.921 257.457 288.327 256.933 288.62C256.37 288.947 255.742 289.145 255.094 289.201C254.445 289.257 253.792 289.169 253.182 288.944L236.611 282.85C236.04 282.639 235.518 282.313 235.078 281.891C234.639 281.47 234.29 280.963 234.055 280.402C233.831 279.879 233.718 279.315 233.725 278.747C233.731 278.178 233.856 277.617 234.092 277.099C234.257 276.741 234.456 276.398 234.686 276.078C235.076 275.545 235.587 275.114 236.176 274.819C236.766 274.524 237.418 274.374 238.078 274.382ZM265.19 191.494C266.623 191.192 268.072 190.975 269.53 190.847C270.564 190.885 271.554 191.106 272.12 191.858C272.509 192.423 272.792 193.054 272.956 193.72C273.201 194.887 273.433 196.057 273.646 197.232C274.129 199.897 274.516 202.582 274.842 205.279C275.167 207.976 275.388 210.688 275.529 213.403C275.671 216.118 275.748 218.842 275.744 221.567V221.577C275.739 221.792 275.777 222.007 275.854 222.207C275.932 222.408 276.049 222.591 276.197 222.747C276.346 222.903 276.524 223.028 276.721 223.114C276.918 223.201 277.13 223.249 277.345 223.254C277.561 223.258 277.775 223.221 277.975 223.143C278.176 223.065 278.36 222.949 278.515 222.8C278.671 222.651 278.796 222.473 278.883 222.276C278.97 222.079 279.017 221.867 279.022 221.652C279.151 218.862 279.202 216.064 279.127 213.267C279.052 210.471 278.906 207.675 278.658 204.885C278.409 202.095 278.051 199.349 277.589 196.589C277.62 196.423 277.62 196.253 277.589 196.087C277.344 194.811 276.853 192.648 278.196 191.765C278.813 191.361 279.845 191.45 280.853 191.646C281.864 191.889 282.876 192.182 283.924 192.536C285.11 192.946 286.142 193.708 286.883 194.721C287.623 195.733 288.037 196.948 288.068 198.202C288.57 219.186 286.603 245.155 269.296 268.073C268.237 269.308 267.025 270.372 266.313 269.767C265.678 269.229 265.969 267.713 266.02 267.042C266.02 266.991 266.02 266.944 266.02 266.894C270.688 242.923 266.983 217.868 262.408 195.814C262.21 194.873 262.391 193.891 262.912 193.083C263.433 192.274 264.251 191.703 265.19 191.494ZM129.73 223.793C128.585 223.451 127.729 222.781 128.364 221.245C128.497 220.928 128.647 220.618 128.811 220.317C129.923 219.084 131.269 218.086 132.771 217.38C134.273 216.674 135.9 216.274 137.558 216.205C137.787 216.195 138.01 216.126 138.204 216.003C142.857 216.193 147.309 219.536 155.517 227.837C156.26 228.782 157.122 229.61 157.945 230.53C159.663 232.43 159.938 234.28 159.159 236.248C158.625 237.155 157.89 237.927 157.011 238.506C155.926 238.854 154.85 239.192 153.666 238.956C152.106 238.642 150.789 237.742 149.579 236.714C147.687 234.933 145.773 233.165 143.762 231.453C141.658 229.654 139.46 227.9 136.949 226.413C136.342 226.029 135.65 225.715 135.003 225.365C134.355 225.015 133.607 224.78 132.911 224.493C131.874 224.165 130.809 223.93 129.73 223.793ZM135.495 257.299L137.991 253.712C138.776 252.749 139.468 251.666 140.622 251.183C141.698 250.729 142.88 250.646 144.029 250.424C145.967 250.12 147.817 249.405 149.456 248.328C151.048 247.755 152.922 247.144 153.66 248.441C154.042 249.113 153.925 249.894 153.587 250.677L144.589 263.626C143.746 264.818 142.465 265.629 141.026 265.881C139.587 266.133 138.107 265.806 136.908 264.972C135.709 264.137 134.889 262.863 134.626 261.426C134.362 259.989 134.678 258.507 135.503 257.301L135.495 257.299ZM178.642 180.008L178.48 176.097C178.48 175.809 178.48 175.52 178.48 175.229C178.47 174.444 178.371 173.408 178.909 172.766C179.447 172.125 180.303 172.766 181.056 173.576C183.205 176.926 185.872 179.915 188.957 182.43C189.286 182.69 189.703 182.814 190.121 182.776C190.539 182.739 190.926 182.543 191.204 182.228C191.482 181.914 191.629 181.505 191.614 181.085C191.6 180.666 191.425 180.268 191.126 179.973L191.112 179.959C185.68 174.685 181.697 168.103 179.545 160.845C178.225 156.398 177.462 151.804 177.272 147.169L177.246 146.52C177.152 143.742 177.227 140.962 177.473 138.194C178.14 130.549 180.008 123.002 182.76 115.801C185.562 108.596 189.202 101.745 193.605 95.39C195.817 92.2213 198.198 89.1744 200.739 86.2627C203.287 83.3625 206.011 80.6224 208.897 78.0581C214.622 72.8969 221.046 68.5683 227.979 65.1998C234.885 61.8836 242.331 59.6397 249.9 59.1197C257.469 58.5997 265.132 59.8562 271.728 63.4112C278.377 66.9656 283.782 72.4672 287.218 79.179C290.7 85.8662 292.382 93.4638 292.681 101.086C292.981 108.708 291.931 116.433 289.871 123.85C287.784 131.288 284.776 138.437 280.918 145.13C277.085 151.847 272.481 158.094 267.199 163.744C261.944 169.399 255.98 174.351 249.457 178.478C244.776 181.436 239.769 183.845 234.537 185.657L232.789 186.226C231.34 186.677 229.881 187.094 228.406 187.44C224.703 188.293 220.923 188.763 217.124 188.844C213.339 188.904 209.559 188.542 205.854 187.765L205.773 187.749C205.358 187.666 204.926 187.748 204.57 187.976C204.213 188.204 203.958 188.562 203.86 188.974C203.761 189.386 203.825 189.82 204.039 190.185C204.253 190.551 204.601 190.819 205.008 190.934C205.994 191.207 206.975 191.527 207.982 191.723L208.055 191.739C208.786 192.01 209.399 192.415 208.909 193.155C208.567 193.682 208.005 194.082 207.43 194.463L201.999 196.227C193.142 199.127 185.468 204.828 180.133 212.47L175.338 219.37C174.998 219.676 174.619 219.937 174.211 220.145C171.603 221.417 169.193 219.485 168.242 217.11C167 214.02 167.775 210.742 169.673 208.116C169.695 208.084 169.709 208.051 169.729 208.021L171.038 206.137C176.34 198.48 179.009 189.306 178.642 180V180.008ZM144.755 205.848C146.382 205.675 148.027 205.837 149.588 206.324C151.15 206.811 152.595 207.613 153.834 208.68L161.927 215.604C162.825 216.368 163.56 217.304 164.088 218.357C164.617 219.41 164.928 220.559 165.003 221.735C165.035 222.259 165.022 222.785 164.962 223.307C164.533 224.645 163.809 225.822 162.395 226.186C160.738 226.611 158.787 225.254 157.326 224.066C149.599 216.319 144.456 212.395 138.509 212.128C137.7 211.926 136.974 211.533 136.957 210.591C136.965 210.172 137.099 209.765 137.342 209.423C139.311 207.39 141.938 206.123 144.755 205.848ZM118.07 251.434C116.559 248.762 115.79 245.735 115.842 242.666C115.894 239.597 116.765 236.597 118.365 233.978C118.387 233.954 118.412 233.936 118.434 233.907C121.022 230.67 123.694 227.896 128.022 227.722C128.093 227.722 128.162 227.722 128.225 227.722C129.362 227.702 130.479 228.003 131.6 228.329C132.152 228.566 132.712 228.752 133.263 229.019C133.807 229.316 134.366 229.557 134.902 229.895C137.071 231.168 139.151 232.797 141.174 234.516C143.197 236.236 145.182 238.049 147.151 239.892L147.9 240.597L148.128 240.894C149.271 242.411 148.62 243.727 147.521 244.898C146.164 245.891 144.575 246.521 142.906 246.729C141.954 246.845 140.99 246.828 140.043 246.679C139.77 246.554 139.471 246.495 139.171 246.505C138.164 246.264 137.199 245.871 136.31 245.341L135.569 244.862L134.742 244.269L133.079 243.095L129.748 240.754C129.398 240.522 128.973 240.433 128.559 240.506C128.145 240.578 127.775 240.807 127.525 241.144C127.275 241.482 127.164 241.903 127.215 242.319C127.267 242.736 127.476 243.118 127.8 243.385L131.015 245.881L132.067 246.691C133.439 248.014 134.821 249.574 134.341 251.575C134.259 251.899 134.148 252.214 134.009 252.518L132.251 255.047C131.263 256.467 130.682 258.13 130.572 259.857C130.462 261.583 130.827 263.307 131.627 264.841C132.427 266.375 133.631 267.66 135.11 268.558C136.589 269.456 138.285 269.932 140.015 269.935C140.512 269.935 141.008 269.896 141.5 269.82C142.767 269.627 143.981 269.177 145.067 268.497C146.153 267.817 147.088 266.922 147.815 265.866L159.722 248.734C160.177 248.214 160.643 247.707 161.138 247.239C162.773 245.691 164.465 246.284 166.178 247.227L166.597 247.632C166.905 247.937 167.321 248.108 167.754 248.108C168.187 248.107 168.603 247.935 168.91 247.629C169.216 247.323 169.39 246.908 169.391 246.475C169.393 246.042 169.223 245.625 168.918 245.317L166.692 242.952C165.644 241.738 164.598 240.475 164.015 238.96C163.384 237.319 163.572 235.674 163.888 234.009C164.531 232.341 165.486 230.789 167.085 229.873C168.932 228.815 170.737 229.234 172.467 230.039L174.828 231.392L178.695 233.618L180.629 234.727L181.59 235.279C181.839 235.449 182.114 235.585 182.347 235.779C183.327 236.49 184.149 237.396 184.76 238.441C185.372 239.486 185.76 240.646 185.9 241.849C185.965 242.448 185.97 243.052 185.914 243.652C185.896 243.957 185.833 244.239 185.791 244.558L185.588 245.653L184.753 250.031L183.921 254.394L183.719 255.478L183.502 256.49C183.332 257.16 183.158 257.827 182.944 258.485C182.098 261.124 180.845 263.614 179.231 265.866C178.426 266.99 177.538 268.051 176.572 269.041C176.093 269.538 175.583 270.004 175.069 270.467L174.274 271.133L173.414 271.825L169.932 274.609L168.192 276.001L167.322 276.697L166.887 277.045L166.367 277.484C164.965 278.756 163.974 280.417 163.52 282.255C163.299 283.171 163.214 284.114 163.267 285.055L163.417 287.297L164.024 296.2L164.734 306.648C164.734 306.703 164.718 306.755 164.718 306.812C164.719 306.962 164.738 307.11 164.774 307.255L165.231 313.987C166.041 325.846 166.887 337.702 167.955 349.543C167.992 349.97 168.196 350.366 168.522 350.645C168.848 350.924 169.27 351.064 169.698 351.035C170.126 351.006 170.525 350.811 170.811 350.49C171.096 350.17 171.245 349.751 171.225 349.322C171.225 349.132 171.206 348.942 171.196 348.754C171.196 348.738 171.196 348.723 171.196 348.705C171.376 345.32 171.514 341.721 173.264 338.714C174.83 336.025 177.456 334.536 180.16 333.198C180.297 333.13 180.421 333.039 180.526 332.927C183.062 331.65 185.594 330.368 188.123 329.083C191.239 327.948 194.52 327.332 197.835 327.262C206.969 328.622 212.282 336.155 214.372 339.853C218.824 347.744 220.151 357.173 218.273 364.261C216.478 368.947 212.438 371.684 207.91 374.193C207.763 374.274 207.633 374.382 207.527 374.511C203.816 376.482 199.903 378.734 195.824 381.081C177.93 391.381 157.65 403.054 142.894 396.749C130.317 391.375 127.632 375.539 128.269 346.522L128.593 340.464C128.616 340.072 128.578 339.679 128.482 339.299C128.733 332.363 129.123 324.759 129.578 316.463C129.657 316.184 129.673 315.89 129.625 315.604C129.779 312.829 129.938 309.979 130.102 307.053C130.554 299.026 131.021 290.725 131.47 281.723C131.665 277.835 130.753 273.972 128.84 270.582L118.07 251.434ZM237.377 449.332C234.978 452.344 232.489 455.468 230.071 458.904C229.501 457.639 228.857 456.411 228.198 455.201C227.241 453.442 226.184 451.738 225.033 450.099C224.798 449.771 224.451 449.54 224.058 449.451C223.665 449.361 223.252 449.419 222.898 449.612C222.545 449.806 222.274 450.123 222.138 450.502C222.001 450.882 222.008 451.298 222.158 451.673C222.919 453.526 223.786 455.333 224.754 457.087C225.681 458.842 226.727 460.532 227.884 462.145C223.717 468.511 220.486 475.441 218.289 482.725C218.019 483.315 217.837 483.943 217.749 484.586C217.605 485.107 217.464 485.634 217.326 486.169C216.922 487.065 216.207 487.856 215.175 487.32C214.615 487.026 214.036 486.322 213.52 485.701C211.304 481.908 209.287 478.001 207.479 473.996C206.497 470.718 205.563 467.319 206.17 463.892C206.48 462.291 207.043 460.75 207.837 459.327C208.646 458.113 209.414 456.884 210.139 455.64L210.801 454.685C210.931 454.504 211.009 454.289 211.026 454.066C216.59 443.832 219.184 432.453 218.03 420.884C216.968 410.204 212.306 403.602 208.193 397.779C207.155 396.31 206.137 394.866 205.192 393.389C203.99 390.918 203.234 388.229 203.203 385.498C203.177 383.124 204.197 381.406 205.678 380.01C215.271 374.679 223.888 370.622 229.505 371.664C235.915 372.854 242.903 378.27 247.741 385.799C254.365 396.108 256.239 408.877 253.02 421.758C250.133 433.319 243.935 441.099 237.375 449.334L237.377 449.332ZM286.648 543.504C284.796 542.609 283.25 541.302 282.255 539.113C280.786 535.876 280.883 532.272 280.948 528.794C280.948 528.713 280.941 528.631 280.928 528.551C280.938 528.167 280.944 527.78 280.958 527.396C281.025 525.642 281.122 523.861 281.27 522.135V522.107C281.313 521.674 281.182 521.242 280.907 520.906C280.632 520.57 280.234 520.356 279.802 520.313C279.369 520.27 278.937 520.4 278.601 520.676C278.264 520.951 278.051 521.349 278.008 521.781C277.796 523.614 277.642 525.397 277.518 527.208C277.409 528.826 277.336 530.433 277.29 532.05L277.12 533.446C276.97 534.678 277.039 536.343 276.573 537.492C275.999 538.921 274.587 538.886 273.099 538.484C268.334 536.406 263.698 534.042 259.219 531.402C257.255 529.686 255.95 527.625 255.709 524.523C255.573 522.767 255.594 521.031 255.507 519.297C255.709 516.954 256.067 514.604 256.439 512.257C256.929 509.285 257.601 506.331 258.339 503.393C259.078 500.455 259.917 497.513 260.85 494.681L260.862 494.644C260.997 494.237 260.967 493.793 260.778 493.408C260.589 493.023 260.257 492.727 259.853 492.584C259.448 492.441 259.004 492.462 258.615 492.643C258.226 492.824 257.924 493.15 257.773 493.552C256.646 496.51 255.695 499.444 254.845 502.454C253.995 505.465 253.226 508.48 252.635 511.559C252.465 512.324 252.35 513.101 252.211 513.874C252.124 514.378 252.043 514.884 251.968 515.392C251.715 516.506 251.496 517.629 251.334 518.775C251.15 520.084 251.047 522.111 249.957 523.054C249.222 523.689 248.38 523.802 247.529 523.647C239.352 517.553 231.929 510.509 225.416 502.663C222.069 497.87 220.622 492.004 221.357 486.205C224.094 475.991 228.214 468.428 232.766 461.868C234.134 460.203 235.983 457.911 237.972 457.888C239.043 457.876 239.878 458.667 240.688 459.547C254.896 481.764 284.165 489.897 308.516 489.897H308.613C327.608 489.881 344.363 485.224 354.061 477.863C354.605 477.556 355.165 477.278 355.738 477.029C358.415 475.886 360.04 476.724 361.28 478.275C362.731 481.805 364.455 485.216 366.438 488.477C375.648 503.581 378.375 517.846 379.082 526.941C379.124 528.064 379.165 529.193 379.12 530.334C378.956 534.441 376.524 536.798 373.455 538.85C365.462 542.275 357.134 544.858 348.606 546.557C348.372 546.487 348.122 546.487 347.888 546.557C345.595 547.184 342.388 548.107 340.707 545.812C339.898 544.718 339.436 543.253 339.101 541.766C338.977 540.661 338.836 539.558 338.668 538.462C338.368 536.519 338.024 534.583 337.591 532.665C337.158 530.747 336.646 528.847 336.098 526.961C335.978 526.549 335.703 526.201 335.33 525.991C334.957 525.78 334.516 525.724 334.102 525.834C333.688 525.944 333.334 526.212 333.115 526.581C332.896 526.949 332.83 527.388 332.931 527.805V527.837C333.832 531.501 334.503 535.218 334.941 538.965C335.167 540.837 335.299 542.717 335.41 544.592V544.625C335.41 544.898 335.388 545.171 335.359 545.446C335.157 547.36 334.032 548.259 332.591 548.683C329.597 548.886 326.584 549.007 323.549 549.007C311.042 549.015 298.604 547.161 286.644 543.506L286.648 543.504ZM425.936 346.202C424.443 347.23 423.006 348.329 421.592 349.456C419.786 350.875 418.067 352.401 416.444 354.027C416.164 354.316 415.998 354.698 415.98 355.101C415.961 355.504 416.091 355.899 416.344 356.213C416.597 356.527 416.956 356.738 417.354 356.805C417.751 356.872 418.16 356.791 418.502 356.578C420.434 355.336 422.29 353.978 424.058 352.513C425.406 351.412 426.733 350.288 428.008 349.096C442.859 370.425 450.82 395.792 450.821 421.782C450.821 467.339 426.996 508.642 388.11 531.481C386.643 532.001 385.172 532.23 384.336 531.279C383.784 530.647 383.47 529.8 383.197 528.924C383.138 527.635 383.043 526.226 382.892 524.703C384.205 523.301 385.419 521.822 386.592 520.31C387.997 518.517 389.312 516.655 390.53 514.73C390.751 514.384 390.835 513.968 390.767 513.564C390.698 513.159 390.48 512.795 390.157 512.542C389.834 512.289 389.428 512.166 389.019 512.196C388.609 512.227 388.226 512.409 387.944 512.707C386.374 514.357 384.888 516.086 383.492 517.886C383.059 518.439 382.633 518.998 382.214 519.562C380.735 510.489 377.329 498.802 369.801 486.454C354.678 461.66 356.028 428.481 373.066 396.266C373.785 396.984 374.529 397.67 375.292 398.338C376.645 399.538 378.072 400.652 379.565 401.672C379.898 401.897 380.301 401.992 380.699 401.941C381.098 401.89 381.464 401.696 381.729 401.395C381.995 401.094 382.142 400.707 382.143 400.305C382.144 399.904 381.998 399.516 381.734 399.214C380.535 397.86 379.251 396.583 377.89 395.392C376.923 394.536 375.933 393.704 374.887 392.937C375.802 391.313 376.745 389.694 377.756 388.075C390.339 367.658 383.306 353.974 377.105 341.901C373.147 334.2 369.416 326.928 370.282 318.21C370.404 317.123 370.646 316.054 371.002 315.021C372.631 311.48 375.013 307.856 379.395 308.398C380.858 308.579 382.244 309.074 383.63 309.574C400.276 318.492 414.727 331.005 425.934 346.204L425.936 346.202ZM366.363 317.807C365.376 327.679 369.558 335.815 373.602 343.687C379.887 355.918 385.823 367.47 374.412 385.999C358.739 411.433 352.667 438.023 356.513 461.389C356.716 463.756 356.754 466.164 356.137 468.424C355.621 470.252 354.699 471.94 353.44 473.363C344.999 480.93 327.863 485.978 308.623 485.997H308.528C285.326 485.997 257.5 478.373 244.101 457.583C243.021 455.189 242.098 452.599 242.788 449.983C243.06 449.024 243.473 448.11 244.014 447.272C249.461 440.219 254.295 432.92 256.846 422.717C260.332 408.772 258.276 394.908 251.061 383.677C248.545 379.735 245.386 376.242 241.715 373.345C240.858 372.182 239.085 370.972 239.17 369.546C239.241 368.332 240.384 367.864 241.608 367.542C242.462 367.5 243.32 367.478 244.107 367.492H244.182C244.606 367.488 245.011 367.321 245.314 367.025C245.617 366.729 245.794 366.327 245.807 365.904C245.82 365.48 245.669 365.068 245.385 364.754C245.1 364.44 244.706 364.248 244.283 364.218C241.796 364.115 239.305 364.191 236.829 364.445C234.376 364.679 231.938 365.058 229.529 365.58C227.708 365.966 225.907 366.428 224.127 366.98C223.374 367.047 222.686 366.98 222.421 366.575C222.105 366.084 222.37 365.272 222.476 364.754C222.65 364.033 222.73 363.291 222.714 362.549C222.714 362.506 222.7 362.468 222.696 362.427C223.882 354.836 222.257 345.784 217.82 337.925C213.947 331.066 208.662 326.445 202.572 324.369C202.486 324.293 202.396 324.222 202.303 324.156C201.494 323.602 200.842 323.375 201.668 322.355C201.728 322.281 201.797 322.216 201.87 322.153C207.634 319.264 213.419 316.433 219.271 313.781C226.757 310.412 234.379 307.251 242.185 305.08C243.539 304.769 244.937 304.473 246.199 304.495C247.512 304.53 248.378 305.276 249.155 306.175C257.58 318.452 271.351 328.338 289.276 334.906C304.028 340.319 316.221 341.597 316.733 341.648C316.8 341.655 316.867 341.658 316.935 341.658C317.27 341.658 317.6 341.572 317.893 341.408C318.186 341.245 318.432 341.009 318.608 340.723C336.055 312.445 329.35 285.146 326.499 276.509C326.242 275.153 326.19 273.797 326.724 272.424C327.021 271.692 327.418 271.004 327.901 270.38C332.45 265.484 337.668 260.447 346.836 255.27C350.197 253.372 353.652 251.444 357.576 249.315C360.013 248.266 362.615 247.649 365.264 247.494C371.334 248.506 378.242 253.872 383.588 261.941C388.359 269.142 390.639 276.66 390.042 282.473C389.526 284.693 388.444 286.74 386.9 288.416C385.617 289.832 384.269 291.162 383.076 292.635C372.556 302.632 367.043 310.966 366.359 317.809L366.363 317.807ZM508.652 209.82L508.587 209.854C475.249 228.995 440.69 249.309 413.78 268.209C407.072 272.919 401.086 277.377 395.823 281.583C395.276 281.814 394.73 281.96 394.437 281.741C394.143 281.522 394.176 280.826 394.129 280.527C394.115 280.43 394.095 280.341 394.077 280.248C393.959 273.205 390.7 265.597 386.843 259.774C382.987 253.951 377.204 247.921 370.756 245.074C370.039 244.572 369.436 243.943 370.104 243.079C370.32 242.808 370.552 242.55 370.8 242.308C390.807 231.975 423.093 216.246 488.76 185.544C489.626 185.136 490.305 184.417 490.665 183.531C491.025 182.645 491.039 181.656 490.703 180.76L481.327 156.102C480.904 154.929 480.94 153.64 481.427 152.492C481.914 151.345 482.817 150.424 483.955 149.913C485.092 149.403 486.38 149.341 487.562 149.74C488.743 150.139 489.73 150.97 490.325 152.066L499.616 169.954C499.803 170.316 500.099 170.61 500.461 170.797C500.824 170.983 501.236 171.052 501.639 170.994C502.082 170.927 512.591 169.505 514.671 179.799C514.722 180.053 514.823 180.293 514.967 180.508C515.111 180.722 515.296 180.906 515.511 181.049C515.727 181.192 515.968 181.291 516.221 181.34C516.475 181.39 516.736 181.389 516.989 181.338C517.242 181.287 517.483 181.186 517.697 181.042C517.912 180.898 518.095 180.713 518.238 180.498C518.381 180.283 518.48 180.041 518.53 179.788C518.58 179.534 518.579 179.274 518.528 179.02C517.033 171.619 512.037 168.467 507.373 167.4C505.036 166.403 502.699 165.142 501.91 162.933C501.557 161.905 501.282 160.852 501.089 159.783L499.652 142.598L498.669 131.185L498.545 129.758C498.495 129.236 498.485 128.902 498.466 128.544C498.482 127.114 499.025 125.74 499.991 124.687C500.958 123.633 502.28 122.973 503.703 122.835C505.127 122.696 506.551 123.088 507.703 123.936C508.854 124.784 509.652 126.027 509.943 127.427L510.026 127.937L510.092 128.65L510.226 130.066L510.76 135.762C511.476 143.355 512.217 150.947 513.188 158.52C513.248 158.936 513.466 159.313 513.796 159.573C514.126 159.834 514.543 159.957 514.962 159.919C515.381 159.88 515.769 159.683 516.046 159.367C516.323 159.051 516.468 158.641 516.452 158.221C516.027 150.591 515.373 142.981 514.696 135.373L514.186 129.667L514.058 128.251L513.995 127.539L513.856 126.634C513.617 125.456 513.164 124.331 512.518 123.316C512.456 123.219 512.385 123.128 512.316 123.031C511.64 121.479 510.88 119.741 511.007 118.221C511.134 116.702 512.601 116.018 514.089 115.573C514.159 115.573 514.228 115.573 514.291 115.573L514.633 115.591L515.1 115.644L516.035 115.749L516.962 115.854C517.177 115.882 517.389 115.924 517.599 115.979C518.439 116.205 519.196 116.669 519.777 117.315C520.359 117.961 520.741 118.762 520.877 119.621L521.524 126.97L522.85 141.961C523.315 146.957 523.805 151.948 524.414 156.934C524.471 157.35 524.686 157.728 525.014 157.991C525.342 158.253 525.758 158.38 526.177 158.345C526.596 158.309 526.985 158.115 527.264 157.801C527.544 157.487 527.692 157.078 527.679 156.659C527.451 151.645 527.101 146.639 526.726 141.637L526.291 136.158C526.235 134.815 526.231 133.469 526.291 132.124C526.328 131.409 526.291 130.228 526.55 129.572C527.188 127.998 528.491 128.172 529.666 128.662C530.593 129.235 531.374 130.018 531.944 130.947C532.515 131.876 532.861 132.925 532.954 134.011L535.878 168.877C533.48 196.385 508.897 209.686 508.652 209.82Z" fill="black"/>
<path d="M426.707 386.052C427.547 388.19 428.515 390.275 429.606 392.296C429.803 392.648 430.121 392.916 430.502 393.05C430.882 393.184 431.299 393.173 431.672 393.021C432.046 392.868 432.35 392.585 432.529 392.223C432.707 391.861 432.747 391.447 432.641 391.058C432.006 388.851 431.238 386.684 430.343 384.569C429.463 382.452 428.536 380.354 427.443 378.325C427.25 377.968 426.931 377.696 426.549 377.559C426.167 377.423 425.747 377.432 425.372 377.586C424.996 377.739 424.69 378.025 424.512 378.39C424.334 378.755 424.297 379.173 424.408 379.563C425.05 381.783 425.855 383.929 426.707 386.052Z" fill="black"/>
<path d="M395.614 381.218C395.802 381.327 396.01 381.397 396.225 381.425C396.44 381.453 396.659 381.439 396.868 381.382C397.078 381.326 397.274 381.229 397.446 381.097C397.618 380.964 397.762 380.799 397.87 380.611C398.999 378.611 400.006 376.545 400.887 374.424C401.779 372.314 402.627 370.175 403.315 367.98C403.434 367.591 403.405 367.173 403.235 366.804C403.064 366.436 402.763 366.143 402.391 365.983C402.018 365.822 401.598 365.805 401.214 365.934C400.829 366.063 400.505 366.33 400.304 366.683C399.173 368.692 398.208 370.772 397.288 372.87C396.35 374.967 395.539 377.119 394.86 379.314C394.753 379.67 394.77 380.052 394.907 380.397C395.043 380.743 395.293 381.032 395.614 381.218Z" fill="black"/>
<path d="M242.871 409.426C242.49 409.211 242.039 409.156 241.618 409.274C241.197 409.392 240.84 409.672 240.625 410.053C239.494 412.062 238.529 414.142 237.608 416.24C236.67 418.338 235.859 420.49 235.18 422.685C235.066 423.072 235.098 423.487 235.269 423.852C235.441 424.218 235.74 424.508 236.111 424.667C236.481 424.827 236.898 424.845 237.281 424.719C237.664 424.593 237.988 424.33 238.191 423.981C239.32 421.981 240.327 419.915 241.208 417.794C242.1 415.684 242.948 413.545 243.636 411.35C243.747 410.99 243.732 410.603 243.593 410.253C243.454 409.903 243.199 409.611 242.871 409.426Z" fill="black"/>
<path d="M388.525 333.356C389.025 335.598 389.659 337.807 390.424 339.973C390.563 340.352 390.837 340.667 391.192 340.859C391.548 341.05 391.962 341.105 392.355 341.012C392.748 340.919 393.093 340.685 393.326 340.354C393.558 340.024 393.661 339.619 393.615 339.218C393.329 336.939 392.905 334.68 392.347 332.452C391.804 330.226 391.214 328.001 390.447 325.836C390.311 325.452 390.039 325.133 389.682 324.938C389.325 324.743 388.908 324.688 388.513 324.781C388.117 324.875 387.77 325.111 387.538 325.445C387.306 325.779 387.206 326.187 387.256 326.59C387.547 328.877 388.013 331.123 388.525 333.356Z" fill="black"/>
<path d="M424.232 425.402C426.535 425.489 428.827 425.402 431.112 425.252C433.405 425.124 435.688 424.858 437.948 424.455C438.344 424.378 438.698 424.16 438.944 423.84C439.19 423.521 439.31 423.123 439.282 422.721C439.255 422.319 439.081 421.94 438.794 421.658C438.507 421.375 438.126 421.207 437.724 421.185C435.43 421.097 433.133 421.147 430.845 421.335C428.558 421.507 426.276 421.739 424.008 422.132C423.609 422.205 423.251 422.422 423.002 422.742C422.753 423.062 422.631 423.463 422.659 423.867C422.686 424.272 422.862 424.652 423.152 424.935C423.443 425.218 423.827 425.384 424.232 425.402Z" fill="black"/>
<path d="M399.129 415.736C398.922 416.083 398.849 416.493 398.924 416.89C398.999 417.287 399.217 417.642 399.536 417.889C399.856 418.136 400.255 418.258 400.658 418.23C401.06 418.203 401.439 418.029 401.723 417.741C403.314 416.085 404.805 414.334 406.186 412.499C407.576 410.678 408.926 408.822 410.136 406.86C410.348 406.513 410.425 406.1 410.351 405.701C410.278 405.301 410.059 404.943 409.738 404.694C409.416 404.446 409.014 404.324 408.609 404.354C408.204 404.384 407.824 404.562 407.542 404.855C405.947 406.518 404.493 408.294 403.078 410.097C401.65 411.896 400.331 413.779 399.129 415.736Z" fill="black"/>
<path d="M385.819 478.977C385.063 476.815 384.257 474.668 383.284 472.578C383.112 472.21 382.809 471.918 382.435 471.76C382.061 471.601 381.641 471.586 381.257 471.718C380.872 471.849 380.55 472.118 380.352 472.473C380.153 472.828 380.093 473.243 380.182 473.64C380.694 475.888 381.376 478.077 382.104 480.25C382.819 482.433 383.664 484.571 384.636 486.652C384.811 487.016 385.114 487.303 385.486 487.458C385.859 487.614 386.276 487.628 386.658 487.497C387.04 487.366 387.361 487.1 387.56 486.748C387.759 486.397 387.822 485.985 387.737 485.59C387.231 483.349 386.591 481.141 385.819 478.977Z" fill="black"/>
<path d="M434.44 447.95C434.059 447.735 433.608 447.681 433.187 447.798C432.766 447.916 432.409 448.196 432.194 448.577C431.063 450.586 430.098 452.666 429.177 454.764C428.239 456.862 427.428 459.014 426.749 461.209C426.635 461.596 426.667 462.011 426.839 462.377C427.01 462.742 427.309 463.032 427.68 463.191C428.051 463.351 428.467 463.369 428.85 463.243C429.233 463.117 429.557 462.854 429.76 462.506C430.889 460.506 431.896 458.439 432.777 456.318C433.669 454.208 434.517 452.069 435.205 449.874C435.316 449.514 435.301 449.127 435.162 448.777C435.023 448.427 434.768 448.135 434.44 447.95Z" fill="black"/>
<path d="M397.99 452.336C397.604 452.463 397.278 452.726 397.075 453.078C396.872 453.429 396.805 453.842 396.888 454.24C396.971 454.637 397.197 454.99 397.523 455.231C397.85 455.472 398.253 455.584 398.657 455.546C400.952 455.317 403.208 454.914 405.456 454.461C407.71 454.022 409.936 453.448 412.121 452.741C412.503 452.612 412.824 452.347 413.024 451.997C413.224 451.647 413.29 451.236 413.207 450.841C413.125 450.446 412.902 450.095 412.578 449.854C412.255 449.613 411.855 449.498 411.453 449.532C409.167 449.757 406.897 450.119 404.655 450.617C402.411 451.098 400.181 451.628 397.99 452.336Z" fill="black"/>
<path d="M406.303 481.99C406.022 482.325 405.886 482.759 405.924 483.195C405.962 483.63 406.171 484.033 406.506 484.315C408.28 485.775 410.141 487.126 412.078 488.362C414.002 489.606 415.955 490.81 418.006 491.862C418.369 492.048 418.786 492.093 419.18 491.989C419.573 491.885 419.914 491.639 420.137 491.299C420.36 490.959 420.449 490.548 420.388 490.146C420.327 489.744 420.119 489.379 419.805 489.121C418.023 487.66 416.141 486.347 414.233 485.074C412.329 483.789 410.349 482.62 408.305 481.573C407.973 481.408 407.595 481.36 407.232 481.435C406.869 481.511 406.542 481.706 406.303 481.99Z" fill="black"/>
<path d="M373.157 430.917C372.77 430.807 372.355 430.841 371.991 431.015C371.627 431.189 371.34 431.49 371.183 431.862C371.026 432.233 371.01 432.649 371.138 433.031C371.267 433.413 371.531 433.735 371.88 433.936C373.888 435.051 375.961 436.045 378.088 436.91C380.205 437.789 382.337 438.62 384.549 439.288C384.938 439.403 385.355 439.372 385.722 439.199C386.089 439.025 386.379 438.723 386.537 438.35C386.695 437.976 386.71 437.557 386.579 437.173C386.447 436.789 386.179 436.468 385.825 436.269C383.802 435.152 381.722 434.199 379.618 433.295C377.514 432.373 375.356 431.579 373.157 430.917Z" fill="black"/>
<path d="M232.991 384.789C230.751 385.332 228.57 386.042 226.407 386.798C224.235 387.543 222.109 388.418 220.042 389.419C219.68 389.599 219.397 389.905 219.246 390.28C219.096 390.654 219.087 391.071 219.223 391.452C219.359 391.832 219.629 392.149 219.984 392.344C220.338 392.538 220.75 392.596 221.144 392.506C223.377 391.969 225.576 391.298 227.728 390.497C229.881 389.712 232.018 388.878 234.094 387.877C234.459 387.699 234.747 387.393 234.9 387.017C235.054 386.641 235.064 386.221 234.927 385.839C234.79 385.456 234.517 385.137 234.16 384.943C233.802 384.75 233.386 384.695 232.991 384.789Z" fill="black"/>
<path d="M412.979 132.611C414.529 131.349 416.012 130.005 417.42 128.585C418.858 127.194 420.19 125.696 421.404 124.105C421.639 123.785 421.751 123.391 421.719 122.995C421.687 122.599 421.515 122.227 421.232 121.948C420.949 121.669 420.575 121.501 420.179 121.475C419.783 121.448 419.39 121.565 419.073 121.805C417.493 123.033 416.009 124.379 414.632 125.831C413.226 127.25 411.897 128.742 410.65 130.303C410.403 130.621 410.281 131.019 410.307 131.422C410.334 131.824 410.506 132.203 410.793 132.487C411.079 132.771 411.46 132.94 411.863 132.962C412.265 132.985 412.662 132.859 412.979 132.609V132.611Z" fill="black"/>
<path d="M351.453 165.525C352.745 164.25 354.027 162.969 355.297 161.68C356.562 160.379 357.845 159.097 359.093 157.781C359.931 156.909 360.758 156.029 361.594 155.151C362.32 154.712 363.057 154.455 363.526 154.925C363.931 155.329 364.083 156.268 364.271 156.794L364.311 156.909L365.015 161.952C365.637 166.326 366.229 170.705 366.871 175.075V175.089C366.928 175.471 367.089 175.829 367.338 176.123C367.587 176.418 367.913 176.638 368.28 176.757C368.646 176.877 369.039 176.892 369.414 176.801C369.789 176.71 370.131 176.517 370.402 176.242L386.791 159.637L394.926 151.276C397.611 148.462 400.296 145.65 402.923 142.778C403.204 142.465 403.354 142.055 403.341 141.634C403.329 141.214 403.155 140.814 402.856 140.517C402.556 140.221 402.155 140.051 401.734 140.042C401.313 140.034 400.905 140.188 400.594 140.472C397.749 143.126 394.961 145.84 392.175 148.551L383.893 156.768L372.575 168.159C371.697 168.894 370.659 168.999 370.147 167.742C370.06 167.53 369.981 167.311 369.908 167.089C369.623 165.183 369.34 163.276 369.058 161.369L367.114 148.258V148.243C367.058 147.874 366.9 147.528 366.657 147.244C366.414 146.961 366.096 146.751 365.74 146.64C365.383 146.529 365.003 146.521 364.641 146.616C364.28 146.712 363.954 146.907 363.698 147.179C361.216 149.822 358.753 152.484 356.309 155.165C355.075 156.495 353.881 157.856 352.667 159.2C351.453 160.543 350.255 161.911 349.066 163.281C348.797 163.602 348.661 164.014 348.686 164.432C348.71 164.85 348.894 165.243 349.2 165.53C349.505 165.817 349.909 165.976 350.327 165.975C350.746 165.974 351.149 165.813 351.453 165.525Z" fill="black"/>
<path d="M329.223 183.949C327.029 186.329 324.806 188.678 322.641 191.082C320.476 193.485 318.297 195.879 316.176 198.325C315.903 198.646 315.764 199.06 315.787 199.48C315.811 199.901 315.995 200.297 316.303 200.585C316.61 200.873 317.016 201.033 317.437 201.03C317.859 201.027 318.263 200.862 318.566 200.569C320.872 198.297 323.133 195.982 325.382 193.657C327.632 191.332 329.846 188.973 332.082 186.634C334.317 184.295 336.491 181.9 338.68 179.516L341.931 175.913C343 174.699 344.08 173.485 345.13 172.261C345.403 171.94 345.543 171.526 345.519 171.105C345.496 170.685 345.311 170.289 345.004 170.001C344.697 169.712 344.29 169.553 343.869 169.556C343.448 169.559 343.044 169.724 342.741 170.017C341.577 171.144 340.444 172.299 339.301 173.44L335.912 176.914C333.671 179.249 331.442 181.594 329.223 183.949Z" fill="black"/>
<path d="M400.907 198.819C401.01 199.244 401.278 199.61 401.651 199.838C402.025 200.066 402.473 200.136 402.898 200.033C405.292 199.426 407.649 198.683 409.958 197.807C412.268 196.949 414.563 196.045 416.796 194.974C417.166 194.798 417.458 194.491 417.613 194.112C417.768 193.733 417.777 193.309 417.637 192.924C417.497 192.539 417.218 192.22 416.855 192.029C416.493 191.839 416.072 191.79 415.676 191.893C413.276 192.5 410.937 193.287 408.616 194.119C406.285 194.932 404.001 195.878 401.777 196.951C401.442 197.118 401.173 197.393 401.015 197.733C400.857 198.072 400.819 198.455 400.907 198.819Z" fill="black"/>
<path d="M308.923 159.196C309.342 159.309 309.79 159.251 310.167 159.034C310.544 158.818 310.82 158.46 310.934 158.041C311.743 155.045 312.525 152.042 313.279 149.033L313.497 148.155C313.736 147.709 313.973 147.262 314.216 146.819C314.889 145.581 315.859 145.846 316.678 146.793L316.977 147.175L317.081 147.305C317.497 147.877 317.849 148.442 318.323 148.877C319.552 150.431 320.785 151.982 322.024 153.531C322.257 153.823 322.566 154.046 322.918 154.173C323.27 154.301 323.651 154.328 324.017 154.252C324.384 154.176 324.722 154 324.995 153.743C325.267 153.487 325.463 153.159 325.56 152.798C326.534 149.207 327.511 145.617 328.444 142.016C329.376 138.414 330.305 134.813 331.228 131.207C332.15 127.601 333.037 123.99 333.933 120.378C334.829 116.767 335.665 113.141 336.464 109.505C336.553 109.091 336.479 108.66 336.257 108.3C336.035 107.94 335.683 107.679 335.274 107.572C334.865 107.466 334.43 107.521 334.061 107.727C333.692 107.933 333.416 108.273 333.291 108.677C332.211 112.24 331.197 115.82 330.188 119.401C329.178 122.982 328.203 126.572 327.256 130.171C326.309 133.771 325.328 137.358 324.405 140.962C324.158 141.904 323.919 142.847 323.677 143.794C323.43 144.328 323.173 144.856 322.879 145.358C322.185 146.546 321.289 145.947 320.591 145.178L320.186 144.658L315.128 138.317L315.114 138.299C314.879 138.006 314.567 137.786 314.212 137.663C313.858 137.541 313.476 137.52 313.111 137.605C312.745 137.689 312.411 137.875 312.147 138.141C311.882 138.407 311.698 138.742 311.616 139.108C310.93 142.143 310.274 145.166 309.619 148.197C308.963 151.228 308.346 154.267 307.751 157.316C307.677 157.719 307.756 158.135 307.973 158.483C308.19 158.83 308.528 159.085 308.923 159.196Z" fill="black"/>
<path d="M303.358 182.527C303.562 182.601 303.779 182.634 303.995 182.625C304.212 182.615 304.425 182.563 304.621 182.472C304.818 182.38 304.994 182.25 305.141 182.09C305.287 181.93 305.401 181.743 305.475 181.539C306.146 179.632 306.708 177.689 307.16 175.718C307.648 173.756 308 171.762 308.214 169.751C308.254 169.352 308.146 168.952 307.913 168.626C307.679 168.3 307.334 168.07 306.944 167.979C306.553 167.889 306.142 167.943 305.789 168.132C305.435 168.322 305.162 168.633 305.022 169.009C304.327 170.908 303.764 172.853 303.336 174.83C302.873 176.798 302.521 178.79 302.282 180.797C302.242 181.164 302.327 181.534 302.522 181.847C302.717 182.161 303.011 182.4 303.358 182.527Z" fill="black"/>
<path d="M201.66 146.085C203.462 143.764 205.217 141.411 206.963 139.049C207.075 138.987 207.172 138.902 207.25 138.801C207.813 138.076 208.452 137.121 209.502 137.33C209.903 137.418 210.295 137.542 210.674 137.7L212.345 138.79C212.978 139.175 213.597 139.575 214.241 139.944C214.595 140.148 215.013 140.212 215.413 140.125C215.812 140.038 216.165 139.806 216.403 139.473C216.64 139.14 216.746 138.73 216.698 138.324C216.65 137.918 216.453 137.544 216.145 137.275C215.588 136.785 215.005 136.332 214.437 135.859L212.689 134.499C212.582 134.416 212.47 134.335 212.363 134.254C212.055 133.872 211.884 133.397 211.877 132.907C211.905 132.562 212 132.226 212.157 131.917C212.446 131.512 212.735 131.108 213.027 130.703C214.436 128.711 215.841 126.715 217.241 124.714C218.032 123.83 218.892 123.371 220.106 124.309C220.455 124.592 220.832 124.838 221.231 125.044L226.676 128.967C227.295 129.675 227.732 130.412 227.374 131.519C227.186 132.054 226.944 132.57 226.654 133.058L223.841 136.848C221.913 139.478 220.011 142.121 218.109 144.767C216.24 147.436 214.34 150.085 212.497 152.772C210.653 155.459 208.806 158.144 207.021 160.865C206.792 161.22 206.709 161.649 206.788 162.063C206.867 162.478 207.103 162.846 207.447 163.091C207.791 163.336 208.215 163.439 208.633 163.379C209.051 163.319 209.429 163.101 209.69 162.769C211.689 160.193 213.634 157.577 215.558 154.953C217.369 152.511 219.131 150.034 220.914 147.572C221.834 146.827 222.797 146.422 224.019 147.151C224.546 147.556 225.07 147.96 225.6 148.353C227.241 149.597 228.91 150.799 230.581 151.995L231.575 152.695C231.624 152.769 231.669 152.846 231.708 152.925C231.866 153.251 231.73 153.761 231.479 154.307C230.571 155.639 229.658 156.97 228.766 158.312C228.514 158.665 228.412 159.105 228.484 159.534C228.556 159.963 228.795 160.345 229.149 160.598C229.502 160.85 229.942 160.952 230.371 160.88C230.8 160.809 231.182 160.569 231.435 160.216C232.329 159.04 233.209 157.856 234.092 156.673C234.22 156.562 234.356 156.458 234.496 156.363C235.215 155.914 235.991 155.989 236.74 156.256L238.207 157.239C239.077 157.792 239.933 158.364 240.813 158.9C241.168 159.119 241.592 159.194 242 159.112C242.408 159.029 242.77 158.794 243.012 158.455C243.254 158.116 243.358 157.698 243.303 157.285C243.248 156.873 243.039 156.496 242.717 156.232C242.11 155.734 241.503 155.256 240.896 154.775C240.839 154.613 240.734 154.472 240.597 154.37C239.915 153.842 239.231 153.237 238.792 152.484C238.29 151.624 238.513 150.892 238.917 150.137L239.105 149.882C240.369 148.16 241.623 146.431 242.867 144.695C243.31 144.088 243.842 143.355 244.532 143.039C245.473 142.61 246.353 143.062 247.183 143.432C249.67 145.153 252.165 146.861 254.669 148.557C255.023 148.81 255.462 148.911 255.891 148.839C256.32 148.768 256.703 148.529 256.955 148.175C257.208 147.821 257.309 147.381 257.238 146.952C257.166 146.523 256.927 146.141 256.573 145.888C253.92 143.887 251.251 141.906 248.569 139.948C247.788 138.954 248.075 137.807 248.619 136.644L253.119 130.303C254.005 129.4 255.094 128.846 256.5 129.416C256.743 129.513 256.969 129.619 257.19 129.73C259.77 131.517 262.361 133.291 264.962 135.051C265.315 135.304 265.755 135.405 266.184 135.334C266.613 135.262 266.995 135.023 267.248 134.669C267.5 134.315 267.602 133.875 267.53 133.447C267.459 133.018 267.219 132.635 266.865 132.383C264.096 130.29 261.303 128.233 258.503 126.181C258.188 125.911 257.941 125.571 257.783 125.188C257.508 124.441 257.807 123.678 258.187 122.99C259.242 121.434 260.306 119.884 261.342 118.316C261.571 117.962 261.654 117.533 261.575 117.118C261.496 116.704 261.26 116.335 260.916 116.09C260.573 115.845 260.148 115.742 259.73 115.802C259.312 115.862 258.934 116.081 258.673 116.412C257.864 117.462 257.073 118.523 256.279 119.585C256.257 119.605 256.235 119.623 256.213 119.648C255.986 119.921 255.777 120.209 255.587 120.51L254.94 121.359C254.815 121.502 254.673 121.629 254.517 121.738C253.858 122.175 253.022 121.962 252.253 121.647L245.374 116.683C244.496 115.731 244.609 114.703 245.084 113.586C246.189 112.084 247.284 110.577 248.37 109.064C248.415 109.017 248.456 108.967 248.492 108.914L248.668 108.653L249.382 107.661C249.89 107.038 250.489 106.518 251.312 106.312C251.872 106.179 252.455 106.186 253.012 106.332C255.274 107.933 257.538 109.533 259.814 111.113C263.254 113.507 266.716 115.892 270.21 118.221C270.564 118.474 271.004 118.575 271.432 118.504C271.861 118.432 272.244 118.193 272.496 117.839C272.749 117.485 272.85 117.045 272.779 116.616C272.707 116.188 272.468 115.805 272.114 115.552C270.696 114.473 269.272 113.403 267.841 112.341C267.644 112.052 267.507 111.727 267.436 111.384C267.315 110.557 267.976 109.689 268.415 108.938C269.309 107.711 270.101 106.413 270.785 105.057C270.958 104.704 271.001 104.3 270.904 103.918C270.808 103.536 270.579 103.201 270.259 102.972C269.938 102.744 269.546 102.636 269.154 102.67C268.762 102.703 268.394 102.874 268.116 103.153C267.018 104.283 266.015 105.501 265.117 106.795C264.919 107.079 264.723 107.364 264.529 107.651C264.194 107.953 263.776 108.148 263.329 108.21C262.764 108.234 262.204 108.101 261.71 107.825C259.912 106.51 258.108 105.203 256.298 103.904C255.902 103.568 255.529 103.206 255.181 102.822C253.94 101.332 255.203 99.5216 256.093 98.2024C256.13 98.1468 256.162 98.0879 256.188 98.0263C256.413 97.7046 256.64 97.3849 256.864 97.0632L259.836 92.7373C260.808 91.2805 261.797 89.8379 262.75 88.369C262.979 88.0144 263.063 87.5853 262.983 87.1707C262.904 86.7562 262.668 86.3881 262.325 86.143C261.981 85.8979 261.556 85.7946 261.138 85.8546C260.721 85.9145 260.342 86.1332 260.081 86.465C259.003 87.8449 257.961 89.2511 256.901 90.6432L253.777 94.8618C253.439 95.3232 253.105 95.7865 252.765 96.2478C252.271 96.8083 251.773 97.3688 251.237 97.8665C250.379 98.6758 249.159 98.3865 248.044 98.0203L241.495 93.4071H241.481C241.205 93.0642 240.996 92.6731 240.864 92.2538C240.718 91.7378 241.127 91.1895 241.471 90.6472L242.596 88.9699C243.184 88.0493 243.789 87.1489 244.362 86.2121C244.58 85.8575 244.656 85.4331 244.573 85.025C244.491 84.6168 244.256 84.2552 243.917 84.0134C243.578 83.7715 243.16 83.6674 242.747 83.7221C242.334 83.7769 241.958 83.9863 241.693 84.3081C240.997 85.1519 240.338 86.0199 239.67 86.8757L238.025 89.0488C237.692 89.3278 237.285 89.5033 236.853 89.5536C236.422 89.6039 235.985 89.5269 235.597 89.3321L234.875 88.8424L234.83 88.8121C233.596 87.9724 232.362 87.1327 231.115 86.3072C230.761 86.0783 230.332 85.9947 229.917 86.074C229.502 86.1532 229.134 86.3891 228.889 86.7327C228.644 87.0763 228.541 87.5011 228.601 87.9188C228.661 88.3366 228.879 88.7152 229.211 88.976C230.35 89.8521 231.502 90.71 232.651 91.5699C233.013 92.0231 233.432 92.4298 233.711 93.0004C234.061 93.7146 233.899 94.4552 233.568 95.1552C232.41 96.8144 231.233 98.4614 230.104 100.141C229.645 100.815 229.19 101.49 228.74 102.164C228.538 102.304 228.322 102.424 228.096 102.522C227 102.984 225.95 102.712 224.942 102.267L224.649 102.065L218.512 97.8847C218.158 97.6322 217.718 97.5307 217.29 97.6024C216.861 97.6741 216.478 97.9132 216.226 98.2671C215.973 98.621 215.872 99.0607 215.943 99.4895C216.015 99.9183 216.254 100.301 216.608 100.553L222.559 105.005L228.55 109.389L236.319 114.99C236.582 115.245 236.868 115.494 237.153 115.799C237.394 116.045 237.57 116.346 237.665 116.677C237.76 117.008 237.77 117.357 237.695 117.693C237.034 118.674 236.37 119.654 235.718 120.643C235.489 120.998 235.406 121.427 235.485 121.841C235.564 122.256 235.8 122.624 236.144 122.869C236.487 123.114 236.912 123.218 237.33 123.158C237.748 123.098 238.126 122.879 238.387 122.547C238.852 121.94 239.308 121.333 239.769 120.726C240.153 120.267 240.638 119.903 241.185 119.662C241.912 119.389 242.533 119.587 243.17 119.882L249.811 124.566C250.564 125.264 251.288 126.029 250.75 127.047C250.711 127.12 250.667 127.185 250.626 127.249L245.062 134.962C244.985 135.037 244.908 135.102 244.831 135.185C244.152 135.925 243.354 135.848 242.555 135.545C239.247 133.147 235.925 130.77 232.613 128.38L221.838 120.793C221.631 120.524 221.471 120.222 221.363 119.901C221.199 119.346 221.363 118.814 221.642 118.316C222.387 117.201 223.137 116.091 223.868 114.96C224.097 114.605 224.18 114.176 224.101 113.761C224.022 113.347 223.786 112.979 223.442 112.734C223.099 112.489 222.674 112.385 222.256 112.445C221.838 112.505 221.46 112.724 221.199 113.056C220.266 114.239 219.364 115.445 218.449 116.641C218.255 116.774 218.045 116.88 217.824 116.959C217.179 117.181 216.563 116.993 215.987 116.706L214.378 115.589L208.239 111.411C207.886 111.158 207.446 111.057 207.017 111.128C206.588 111.2 206.206 111.439 205.953 111.793C205.701 112.147 205.599 112.587 205.671 113.015C205.742 113.444 205.982 113.827 206.336 114.079L212.284 118.531L213.257 119.243C214.316 120.289 214.674 121.266 213.783 122.79C213.581 123.144 213.367 123.484 213.158 123.824C212.045 125.36 210.936 126.899 209.83 128.439C209.553 128.844 209.273 129.228 208.996 129.621C208.865 129.704 208.733 129.787 208.592 129.868C207.535 130.501 206.771 130.139 205.803 129.532C205.726 129.484 205.642 129.446 205.554 129.42L205.474 129.366C204.241 128.556 203.005 127.747 201.724 126.998C201.37 126.788 200.949 126.718 200.545 126.803C200.142 126.888 199.785 127.122 199.546 127.458C199.306 127.793 199.201 128.207 199.252 128.616C199.303 129.025 199.506 129.4 199.82 129.667C200.943 130.632 202.107 131.541 203.278 132.441C203.831 132.87 204.391 133.289 204.954 133.704C205.007 133.785 205.052 133.871 205.087 133.961C205.226 134.379 205.212 134.833 205.047 135.241C204.81 135.583 204.569 135.921 204.334 136.253C202.526 138.883 200.729 141.514 198.985 144.179C198.732 144.533 198.63 144.974 198.703 145.403C198.775 145.833 199.014 146.216 199.369 146.469C199.724 146.722 200.164 146.823 200.594 146.751C201.024 146.679 201.407 146.439 201.66 146.085ZM239.844 138.313C240.489 138.958 241.015 139.685 240.789 140.458C240.618 140.973 240.386 141.465 240.097 141.925C238.738 143.844 237.39 145.768 236.05 147.697L235.554 148.413C235.352 148.573 235.13 148.735 234.903 148.899C234.347 149.304 233.717 149.188 233.094 148.958L232.878 148.802C231.198 147.614 229.517 146.426 227.807 145.281C226.941 144.696 226.072 144.116 225.201 143.541C224.991 143.265 224.873 142.929 224.865 142.582C224.884 142.268 224.963 141.96 225.098 141.676C225.712 140.8 226.324 139.924 226.935 139.045L229.6 135.159C230.182 134.552 230.814 134.03 231.566 133.858C232.376 133.673 233.339 133.985 234.274 134.396C236.127 135.714 237.984 137.022 239.844 138.321V138.313ZM232.056 107.237L231.997 107.178C231.129 106.223 231.36 105.098 231.866 104.058C232.303 103.483 232.74 102.909 233.173 102.332C234.361 100.76 235.502 99.1574 236.661 97.565C236.719 97.5298 236.773 97.4905 236.825 97.4477C237.918 96.4927 239.105 96.3571 240.247 97.2939C240.71 97.7069 241.237 98.0436 241.807 98.2914L246.743 101.857C246.961 102.085 247.122 102.363 247.211 102.666C247.413 103.475 246.885 104.24 246.493 104.892C246.367 105.094 246.25 105.296 246.138 105.499C244.924 107.22 243.714 108.945 242.507 110.674C242.205 111.034 241.914 111.411 241.57 111.771C240.73 112.651 240.19 112.501 239.142 112.004C238.436 111.666 237.764 111.194 237.09 110.79C237.072 110.779 237.054 110.773 237.036 110.763L232.056 107.237Z" fill="black"/>
<path d="M374.167 202.428L372.449 208.053C372.339 208.415 372.332 208.801 372.428 209.167C372.525 209.533 372.722 209.865 372.997 210.125C373.272 210.385 373.614 210.564 373.985 210.64C374.355 210.717 374.74 210.688 375.096 210.558L379.853 208.816L384.591 207.023C386.175 206.437 387.739 205.795 389.312 205.182C390.884 204.569 392.446 203.918 394.004 203.26C394.395 203.099 394.71 202.793 394.881 202.405C395.052 202.018 395.067 201.579 394.922 201.181C394.777 200.783 394.484 200.457 394.104 200.27C393.724 200.083 393.286 200.05 392.883 200.179C391.264 200.674 389.645 201.19 388.051 201.718C386.457 202.246 384.84 202.77 383.25 203.337L380.103 204.436C379.733 204.432 379.367 204.345 379.035 204.181C378.384 203.839 378.299 203.272 378.382 202.669L381.135 193.787C381.25 193.414 381.258 193.016 381.156 192.64C381.054 192.263 380.848 191.923 380.561 191.659C380.275 191.394 379.919 191.216 379.535 191.146C379.152 191.075 378.756 191.115 378.394 191.26L358.612 199.177L348.742 203.189C345.456 204.538 342.178 205.907 338.908 207.297C338.51 207.46 338.192 207.774 338.023 208.17C337.854 208.566 337.848 209.013 338.006 209.414C338.164 209.814 338.473 210.137 338.867 210.311C339.261 210.486 339.707 210.498 340.11 210.346C343.447 209.132 346.777 207.895 350.099 206.635L360.05 202.829L371.15 198.515C372.291 198.192 374.46 197.552 374.734 198.139C374.968 198.641 374.675 199.77 374.604 200.294C374.5 201.013 374.354 201.726 374.167 202.428Z" fill="black"/>
</svg>
